<svg version="1.1" xmlns="http://www.w3.org/2000/svg" viewBox="0 0 1355.6692093734682 1111.410823525917" width="2711.3384187469364" height="2222.821647051834">
  <!-- svg-source:excalidraw -->
  
  <defs>
    <style class="style-fonts">
      @font-face {
        font-family: "Virgil";
        src: url("https://excalidraw.com/Virgil.woff2");
      }
      @font-face {
        font-family: "Cascadia";
        src: url("https://excalidraw.com/Cascadia.woff2");
      }
    </style>
  </defs>
  <rect x="0" y="0" width="1355.6692093734682" height="1111.410823525917" fill="#ffffff"></rect><g stroke-linecap="round" transform="translate(705.8676645576805 450.2077542902775) rotate(0 83.5 79.5)"><path d="M14.26 36.25 C14.26 36.25, 14.26 36.25, 14.26 36.25 M14.26 36.25 C14.26 36.25, 14.26 36.25, 14.26 36.25 M10.41 48.16 C16.14 37.74, 28.01 28.88, 38.96 12.31 M9.42 48.39 C20.35 36.83, 30.78 23.86, 39.85 14.07 M6.08 60.69 C14.09 49.37, 22.53 36.35, 49.05 11.4 M5.41 60.31 C19.21 43.29, 33.08 26.56, 47.43 10.31 M1.41 69.79 C14.01 52.65, 28.98 39.12, 57.06 8.15 M1.14 69.67 C19.52 48.08, 38.88 27.26, 54.61 7.23 M2.92 76.55 C23.87 50.45, 46 24.12, 61.8 5.02 M1.49 75.02 C15.07 58.56, 29.71 43.13, 63.95 4.39 M1.34 81.26 C20.36 60.68, 40.47 37.88, 69.75 2.72 M3.02 79.77 C20.79 58.7, 41.64 35.8, 71.43 2.52 M4.18 84.65 C26.91 60.25, 49.86 33.45, 75.77 2.21 M2.03 85.51 C25.06 59.77, 49.5 33.09, 75.53 2.65 M2.48 92.74 C20.24 70.92, 40.69 47.35, 81.67 0.8 M1.79 91.85 C28.49 61.29, 55.43 31.44, 81.37 2.13 M2.13 96.15 C31.92 62.58, 63.84 29.86, 86.39 1.72 M3.29 97.77 C20.97 77.28, 40.56 57.49, 85.3 3.32 M3.89 101.38 C33.43 69.57, 64.68 33.49, 93.26 1.4 M3.77 101.97 C24.05 79.55, 43.42 58.61, 91.61 2.88 M7.51 105.94 C35.68 73.56, 63.95 37.56, 98.08 4.85 M6.29 105.96 C27.76 83.75, 47.58 61.45, 97.16 2.13 M6.97 109.85 C44.12 70.79, 78.26 32.56, 101.72 3.36 M9.43 108.68 C35.2 78.56, 60.79 49.94, 101.37 2.9 M10.53 114.25 C38.51 78.8, 69.76 46.85, 105.59 2.7 M10.83 113.04 C32.01 88.76, 53.83 66.25, 106.17 4.58 M14.11 115.65 C35.67 88.23, 59.68 61.66, 110.87 6.29 M13.02 117.3 C34.44 92.24, 56.77 65.7, 110.77 5.54 M15.29 122.31 C52.78 75.14, 93.26 30.91, 114.65 6.64 M14.88 121.41 C38.2 96.67, 58.66 70.85, 114.15 7.39 M18.66 124.52 C47.63 86.42, 82.63 47.3, 117.16 8.58 M17.53 124.35 C38.35 96.53, 61.46 71.51, 117.89 8.39 M17.86 126.9 C52.27 88.48, 85.11 51.49, 122.59 11.84 M19.7 128.47 C41.55 102.97, 61.58 79.91, 121.32 11 M20.92 130.74 C56.54 91.03, 86.21 54.38, 124.32 12.63 M21.71 132.85 C60.51 85.17, 100.8 38.35, 124.36 13.5 M24.93 133.54 C50.55 101.5, 76.92 72.59, 127.71 15.96 M23.46 134.85 C53.15 99.8, 83.53 65.62, 128.66 15.33 M28.79 136.1 C60.71 98.32, 96.44 59.18, 130.73 17.91 M27.73 136.26 C54.78 107.56, 81.87 76.78, 131.78 17.43 M31.84 138.56 C53.61 115.88, 74.08 89.55, 135.3 17.23 M30.26 139.39 C66.91 99.68, 100.91 59.1, 136.95 16.81 M35.23 141.71 C73.16 97.97, 109.87 52.39, 140.08 22.14 M33.57 141.35 C67.91 99.95, 103.77 60.16, 139.34 21.46 M36.59 143.58 C72.16 104.9, 106.18 63.06, 143.65 24.9 M37.16 144.72 C71.35 102.87, 107.7 62.81, 141.75 23.86 M38.77 145.95 C73 108.9, 106.4 71.61, 144.05 26.6 M40.62 147.08 C79 100.08, 118.01 55.2, 143.53 27.88 M42.47 148.23 C79.18 109.09, 111.81 70.47, 147.3 30.76 M43.82 148.91 C74.09 113.47, 105.91 77.86, 145.68 31.35 M46.94 149.97 C86.77 106.28, 125.76 61, 150.23 31.83 M48.03 151.14 C77.1 117.16, 104.56 83.01, 149.03 32.67 M50.02 153.94 C70.78 123.66, 92.76 101.92, 153.08 37.84 M51.45 152.27 C82.54 116.57, 111.84 82.56, 151.44 36.4 M54.84 154.44 C88.55 114.39, 123.93 75.17, 152.23 40.15 M56.36 153.71 C77.56 130.15, 97.74 106.69, 153.85 39.08 M59.81 154.15 C93.73 114.75, 126.08 77.68, 156.83 44 M60.58 154.62 C79.91 129.61, 103.21 104.91, 157.54 42.86 M64.64 157.1 C100.58 112.73, 136.99 70.75, 158.28 46.67 M63.99 155.98 C87.09 131.44, 107.6 105.21, 158.92 47.58 M67.04 155.1 C98.8 120.12, 134.24 81.81, 161.38 51.88 M68.66 156.98 C92.21 131.07, 114.78 105.34, 159.28 52.35 M74.07 155.19 C95.29 133.36, 119.64 106.01, 160.57 54.03 M74.69 157.58 C100.45 124.42, 129.32 93.88, 162.4 55.64 M76.18 157.05 C101.86 134.62, 120.79 106.79, 161.8 58.62 M77.72 157.87 C108.71 122.46, 139.73 87.3, 162.99 60.92 M81.22 161.5 C102.6 135.74, 122.42 112.83, 165.27 66.4 M81.38 159.67 C109.62 127.4, 138.2 94.47, 164.77 64.68 M89.04 158.55 C120.06 122.82, 149.72 87.13, 164.13 70.14 M87.4 158.56 C107.77 136.67, 126.14 113.33, 165.77 68.37 M92.37 159.05 C114.42 133.1, 137.56 106.78, 167.16 74.73 M92.94 158.58 C111.51 136.02, 130.35 115.53, 166.39 74.4 M100.67 156.16 C127.95 124.58, 153.63 94.77, 168.09 78.43 M99.91 157.76 C126.47 126.65, 152.9 98.21, 169.21 76.51 M107.57 157.97 C119.66 136.67, 138.26 117.64, 169.05 85.76 M104.87 157.71 C127.63 130.94, 149.32 105.65, 167.94 84.7 M112.84 155.76 C125.91 142.35, 138.97 126.89, 165.11 92.01 M112.47 155.97 C128.84 133.95, 147.98 113.93, 166.38 92.66 M115.14 155.13 C134.73 135.6, 153.04 113.22, 163.73 100.04 M116.68 156.14 C135.29 134.94, 153.08 115.38, 165.38 100.75 M130.5 146.45 C135.77 141.52, 142.06 132.87, 163.44 108.64 M128.75 148.36 C138.86 137.5, 148.35 125.68, 161.98 109.29" stroke="#fab005" stroke-width="0.5" fill="none"></path><path d="M69.2 0.35 C79.58 -2.51, 92.84 -0.52, 103.98 2.34 C115.11 5.2, 127.22 10.79, 136.01 17.51 C144.8 24.23, 151.42 33.07, 156.72 42.66 C162.03 52.24, 167.03 64.12, 167.85 75.03 C168.68 85.93, 165.68 98.19, 161.66 108.11 C157.64 118.03, 151.61 126.89, 143.71 134.54 C135.82 142.2, 124.86 150.1, 114.29 154.05 C103.72 158, 91.69 158.89, 80.32 158.24 C68.94 157.59, 56.34 154.8, 46.06 150.14 C35.77 145.48, 25.88 138.74, 18.6 130.3 C11.33 121.86, 5.34 109.87, 2.41 99.52 C-0.52 89.17, -0.93 78.71, 1.02 68.2 C2.97 57.68, 7.96 45.63, 14.11 36.42 C20.27 27.22, 26.88 18.99, 37.97 12.96 C49.05 6.94, 71.52 2.05, 80.62 0.28 C89.72 -1.5, 92.48 0.99, 92.57 2.32 M73.1 0.87 C83.79 -1.42, 98.04 -0.03, 109.07 2.95 C120.09 5.94, 130.89 11.42, 139.26 18.76 C147.63 26.09, 154.83 37.16, 159.29 46.96 C163.76 56.76, 165.72 67.06, 166.06 77.56 C166.39 88.06, 165.92 99.6, 161.29 109.96 C156.66 120.32, 147.07 132.07, 138.28 139.71 C129.49 147.35, 118.97 152.87, 108.56 155.8 C98.15 158.72, 87.09 158.23, 75.81 157.25 C64.52 156.26, 50.64 155.05, 40.86 149.9 C31.09 144.74, 23.53 135, 17.17 126.32 C10.82 117.64, 5.3 108.12, 2.75 97.82 C0.19 87.53, -0.28 75.54, 1.83 64.57 C3.95 53.6, 8.62 40.99, 15.45 31.99 C22.28 23, 32.76 16.04, 42.81 10.6 C52.86 5.17, 70.3 0.77, 75.74 -0.63 C81.19 -2.03, 75.49 0.66, 75.48 2.19" stroke="#000000" stroke-width="1" fill="none"></path></g><g transform="translate(735.6942968515531 505.49276518594695) rotate(0 53.62995147705078 24)"><text x="53.62995147705078" y="0" font-family="Virgil, Segoe UI Emoji" font-size="20px" fill="#000000" text-anchor="middle" style="white-space: pre;" direction="ltr" dominant-baseline="text-before-edge">Service </text><text x="53.62995147705078" y="24" font-family="Virgil, Segoe UI Emoji" font-size="20px" fill="#000000" text-anchor="middle" style="white-space: pre;" direction="ltr" dominant-baseline="text-before-edge">aggreagtor</text></g><g stroke-linecap="round" transform="translate(713.0276287982246 702.4620278331904) rotate(0 76.7468688027061 76.74686880270605)"><path d="M7.86 8.16 C7.86 8.16, 7.86 8.16, 7.86 8.16 M7.86 8.16 C7.86 8.16, 7.86 8.16, 7.86 8.16 M3.66 19.09 C8.17 11.21, 12.53 6.06, 18.1 2.48 M3.66 19.09 C7.15 13.4, 11.28 9.16, 18.1 2.48 M2.75 26.24 C9.57 19.98, 18.61 9.24, 24.4 1.33 M2.75 26.24 C9.38 17.13, 17.04 8.97, 24.4 1.33 M2.48 32.64 C14.35 19.98, 20.83 8.24, 30.7 0.18 M2.48 32.64 C11.56 21.67, 20.94 12.22, 30.7 0.18 M2.88 38.28 C15.15 25.4, 24.11 14.56, 34.37 2.05 M2.88 38.28 C12.12 27.92, 23.39 14.85, 34.37 2.05 M2.62 44.68 C13.79 34.96, 23.13 23.8, 39.36 2.41 M2.62 44.68 C15.82 29.38, 27.55 14.34, 39.36 2.41 M2.36 51.07 C16.54 36.12, 29.1 20.84, 45 2.02 M2.36 51.07 C14.8 36.18, 26.82 22.72, 45 2.02 M2.75 56.72 C20.5 35.68, 40.32 15.6, 49.99 2.38 M2.75 56.72 C15.17 42.68, 28.76 27.7, 49.99 2.38 M2.49 63.11 C12.56 49.15, 26.12 36.24, 55.63 1.98 M2.49 63.11 C13.89 50.01, 23.93 36.72, 55.63 1.98 M2.23 69.51 C21.8 44.63, 43.17 21.1, 60.62 2.34 M2.23 69.51 C21.94 46.41, 42.68 23.43, 60.62 2.34 M2.62 75.16 C14.44 62.21, 28.79 47.18, 66.26 1.95 M2.62 75.16 C20.28 54.71, 36.37 35.89, 66.26 1.95 M2.36 81.55 C18.86 60.22, 37.01 38.67, 71.25 2.31 M2.36 81.55 C27.83 50.32, 55.57 19.92, 71.25 2.31 M2.1 87.95 C28.05 59.6, 49.52 30.62, 76.89 1.91 M2.1 87.95 C23.69 62.59, 46.37 39.17, 76.89 1.91 M2.49 93.59 C29.78 59.58, 61.79 29.17, 81.88 2.27 M2.49 93.59 C19.68 72.55, 36.4 53.25, 81.88 2.27 M2.23 99.99 C25.83 75.61, 44.03 49.64, 86.86 2.63 M2.23 99.99 C24.45 73.51, 45.04 49.8, 86.86 2.63 M1.97 106.39 C32.15 73.1, 62.89 34.68, 92.51 2.24 M1.97 106.39 C38.51 66.24, 73.75 26.38, 92.51 2.24 M2.37 112.03 C34.03 74.6, 64.49 38.66, 97.49 2.6 M2.37 112.03 C27.74 82.68, 54.03 53.43, 97.49 2.6 M2.1 118.43 C24.71 93.09, 49.58 65.15, 103.14 2.21 M2.1 118.43 C30.43 85.08, 58.97 51.55, 103.14 2.21 M2.5 124.07 C37.81 85.67, 69.94 48.29, 108.12 2.57 M2.5 124.07 C40.99 81.9, 78.35 37.23, 108.12 2.57 M3.55 128.96 C42.78 83.3, 83.02 38.12, 113.77 2.17 M3.55 128.96 C45.22 79.46, 87.42 28.47, 113.77 2.17 M2.63 136.11 C34.59 100.47, 65.86 61.71, 118.76 2.53 M2.63 136.11 C31.32 102.25, 60.52 69.22, 118.76 2.53 M4.34 140.25 C46.53 92.13, 88.36 42.57, 123.74 2.89 M4.34 140.25 C31.34 107.41, 59.7 74.52, 123.74 2.89 M7.36 142.87 C41.03 103.35, 75.62 63.89, 130.04 1.74 M7.36 142.87 C38.22 109.45, 68.95 75.52, 130.04 1.74 M9.72 146.25 C50.18 98.86, 93.19 51.39, 134.37 2.86 M9.72 146.25 C43.11 108.36, 75.42 70.36, 134.37 2.86 M12.74 148.88 C44.78 110.11, 81.04 69.24, 138.7 3.97 M12.74 148.88 C50.99 103.11, 89.39 59.41, 138.7 3.97 M16.41 150.75 C59.48 99.58, 104.01 51.22, 142.38 5.84 M16.41 150.75 C57.8 100.68, 99.65 52.54, 142.38 5.84 M19.43 153.37 C49.13 117.02, 79.78 80.51, 145.4 8.47 M19.43 153.37 C67.98 98.16, 116.61 42.34, 145.4 8.47 M24.42 153.73 C59.22 112.53, 93.2 74.66, 148.42 11.09 M24.42 153.73 C57.64 117.06, 87.74 80.45, 148.42 11.09 M29.41 154.09 C60.86 117.75, 90.58 82.47, 150.78 14.47 M29.41 154.09 C64.83 114.27, 99.61 74.04, 150.78 14.47 M33.74 155.2 C57.65 126.02, 84.83 101.31, 152.49 18.6 M33.74 155.2 C58.72 123.89, 87.89 94.12, 152.49 18.6 M39.38 154.81 C80.82 107.81, 122.58 61.4, 152.88 24.25 M39.38 154.81 C62.9 127.78, 87.54 101.16, 152.88 24.25 M44.37 155.17 C68.82 125.97, 94.67 97.72, 153.93 29.13 M44.37 155.17 C65.6 130.87, 89.4 105.52, 153.93 29.13 M50.01 154.78 C87.37 110.93, 121.94 69.38, 155.64 33.27 M50.01 154.78 C71.33 129.29, 93.09 103.49, 155.64 33.27 M55 155.14 C74.69 131.22, 99.13 106.9, 155.38 39.67 M55 155.14 C90.77 116.25, 123.94 77, 155.38 39.67 M60.64 154.74 C96.52 113.9, 133.78 69.56, 155.11 46.06 M60.64 154.74 C92.13 117.63, 124.36 81.59, 155.11 46.06 M65.63 155.1 C90.13 126.78, 111.18 102.36, 155.51 51.71 M65.63 155.1 C93.61 121.49, 120.75 89.07, 155.51 51.71 M70.62 155.46 C100.8 121.98, 127.8 87.86, 155.25 58.1 M70.62 155.46 C95.69 127.79, 119.75 100.35, 155.25 58.1 M76.26 155.07 C94.02 132.75, 113.09 110.96, 155.64 63.75 M76.26 155.07 C95.12 131.88, 113.44 110.18, 155.64 63.75 M81.25 155.43 C105.58 126.89, 125.29 103.22, 155.38 70.14 M81.25 155.43 C105.79 125.93, 131.36 95.62, 155.38 70.14 M86.89 155.03 C102.41 133.34, 119.98 112.63, 155.12 76.54 M86.89 155.03 C111.95 127.05, 136.21 97.72, 155.12 76.54 M91.88 155.39 C108.34 136.65, 124.19 119.64, 155.51 82.19 M91.88 155.39 C108.68 134.81, 126.75 115.56, 155.51 82.19 M97.52 155 C119.79 129.04, 141.16 102.85, 155.25 88.58 M97.52 155 C116.86 133.53, 136.15 111.59, 155.25 88.58 M102.51 155.36 C120.47 135.09, 136.81 114.72, 155.65 94.23 M102.51 155.36 C112.66 143.65, 122.84 130.94, 155.65 94.23 M108.15 154.96 C122.18 136.17, 138.87 118.55, 155.39 100.62 M108.15 154.96 C123.55 137.85, 137.54 121.6, 155.39 100.62 M113.14 155.32 C122.92 144.83, 133.07 129.2, 155.12 107.02 M113.14 155.32 C126.72 140.15, 140.21 124.51, 155.12 107.02 M118.78 154.93 C133.46 137.39, 148.47 120.82, 155.52 112.66 M118.78 154.93 C131.01 142.64, 141.59 128.14, 155.52 112.66 M123.77 155.29 C131.36 145.37, 143.85 133.39, 155.26 119.06 M123.77 155.29 C132.4 147.48, 139.5 137.11, 155.26 119.06 M129.41 154.89 C136.43 148.85, 143.76 140.62, 156.31 123.95 M129.41 154.89 C137.15 145.76, 143.98 137.56, 156.31 123.95 M137.02 152.24 C141.58 148.05, 144.62 144.74, 151.45 135.63 M137.02 152.24 C142.74 144.93, 147.62 139.96, 151.45 135.63" stroke="#40c057" stroke-width="0.5" fill="none"></path><path d="M32 0 M32 0 C68.5 -1.65, 102.52 0.37, 121.49 0 M32 0 C62.79 -0.23, 91.34 -1.3, 121.49 0 M121.49 0 C142.01 -0.74, 154.36 9.56, 153.49 32 M121.49 0 C142.78 -1.99, 153.42 12.18, 153.49 32 M153.49 32 C154.67 58.57, 153.98 84.14, 153.49 121.49 M153.49 32 C152.57 64.26, 152.8 98.98, 153.49 121.49 M153.49 121.49 C151.93 141.97, 144.39 151.75, 121.49 153.49 M153.49 121.49 C154.83 143.83, 141.82 153.05, 121.49 153.49 M121.49 153.49 C95.09 153.89, 67.46 154.08, 32 153.49 M121.49 153.49 C102.94 153.34, 83.47 153.02, 32 153.49 M32 153.49 C9.94 153.69, 0.06 143.8, 0 121.49 M32 153.49 C9.45 152.92, -1.56 144.74, 0 121.49 M0 121.49 C1.31 86.31, 1.13 51.21, 0 32 M0 121.49 C0.36 89.19, -0.3 57.34, 0 32 M0 32 C-1.5 10.47, 11.92 0.67, 32 0 M0 32 C-1.03 10.9, 10.7 0.13, 32 0" stroke="#000000" stroke-width="1" fill="none"></path></g><g transform="translate(732.1745525325713 755.2088966358965) rotate(0 57.599945068359375 24)"><text x="57.599945068359375" y="0" font-family="Virgil, Segoe UI Emoji" font-size="20px" fill="#000000" text-anchor="middle" style="white-space: pre;" direction="ltr" dominant-baseline="text-before-edge">Newsletter </text><text x="57.599945068359375" y="24" font-family="Virgil, Segoe UI Emoji" font-size="20px" fill="#000000" text-anchor="middle" style="white-space: pre;" direction="ltr" dominant-baseline="text-before-edge">API</text></g><g stroke-linecap="round" transform="translate(199.65134418103133 501.9257875782617) rotate(0 76.74686880270608 76.74686880270605)"><path d="M7.86 8.16 C7.86 8.16, 7.86 8.16, 7.86 8.16 M7.86 8.16 C7.86 8.16, 7.86 8.16, 7.86 8.16 M3.66 19.09 C7.78 16.57, 10.85 12.93, 18.1 2.48 M3.66 19.09 C9 12.61, 14.64 7.61, 18.1 2.48 M2.75 26.24 C9.88 17.28, 15.08 13.19, 24.4 1.33 M2.75 26.24 C7.88 20.92, 11.18 15.9, 24.4 1.33 M2.48 32.64 C13.87 21.61, 26.27 7.84, 30.7 0.18 M2.48 32.64 C10.8 22.78, 19.56 12.36, 30.7 0.18 M2.88 38.28 C10.77 27.92, 20.77 21.25, 34.37 2.05 M2.88 38.28 C16.29 23.96, 28.71 9.73, 34.37 2.05 M2.62 44.68 C13.55 31.76, 29.1 16.32, 39.36 2.41 M2.62 44.68 C16.28 28.98, 29.82 13.89, 39.36 2.41 M2.36 51.07 C20.24 30.28, 36.89 11.62, 45 2.02 M2.36 51.07 C14.33 36.08, 28.62 22.59, 45 2.02 M2.75 56.72 C18.87 39.38, 33.8 23.28, 49.99 2.38 M2.75 56.72 C21.24 37.27, 39.21 16.47, 49.99 2.38 M2.49 63.11 C14.4 46.65, 31.85 33.2, 55.63 1.98 M2.49 63.11 C14.87 49.04, 28.06 32.56, 55.63 1.98 M2.23 69.51 C15.99 51.01, 31.9 34.94, 60.62 2.34 M2.23 69.51 C21.73 46.67, 42.05 24.88, 60.62 2.34 M2.62 75.16 C22.66 54.71, 41.53 30.55, 66.26 1.95 M2.62 75.16 C22.59 51.99, 43.36 28.06, 66.26 1.95 M2.36 81.55 C24.69 54.77, 49.85 27.33, 71.25 2.31 M2.36 81.55 C25.52 53.92, 49.63 27.59, 71.25 2.31 M2.1 87.95 C23 64.56, 45.35 38.2, 76.89 1.91 M2.1 87.95 C18.37 70.05, 33.33 50.98, 76.89 1.91 M2.49 93.59 C29.39 61.88, 56.87 32.91, 81.88 2.27 M2.49 93.59 C21.35 70.86, 42.25 46.06, 81.88 2.27 M2.23 99.99 C25.07 77.17, 46.74 51.47, 86.86 2.63 M2.23 99.99 C30.43 66.93, 59.3 33.49, 86.86 2.63 M1.97 106.39 C33.32 68.6, 68.43 30.93, 92.51 2.24 M1.97 106.39 C22.02 81.07, 42.62 58.4, 92.51 2.24 M2.37 112.03 C37.68 66.76, 78.22 22.5, 97.49 2.6 M2.37 112.03 C32.73 75.98, 62.16 41.91, 97.49 2.6 M2.1 118.43 C34.03 81.07, 66.74 44.62, 103.14 2.21 M2.1 118.43 C39.1 76.53, 76.43 34.41, 103.14 2.21 M2.5 124.07 C40.46 84.5, 77.18 41.95, 108.12 2.57 M2.5 124.07 C39.31 83.9, 73.9 42.98, 108.12 2.57 M3.55 128.96 C43.93 79.97, 87.35 32.9, 113.77 2.17 M3.55 128.96 C30.5 99.56, 57.34 68.79, 113.77 2.17 M2.63 136.11 C34.26 99.62, 68.18 61.27, 118.76 2.53 M2.63 136.11 C45.45 89.16, 87.61 39.37, 118.76 2.53 M4.34 140.25 C51.55 86.75, 95.43 35.76, 123.74 2.89 M4.34 140.25 C32.93 108.01, 60.74 75.11, 123.74 2.89 M7.36 142.87 C37.37 106.91, 66.31 74.12, 130.04 1.74 M7.36 142.87 C44.82 98.28, 82.7 55.61, 130.04 1.74 M9.72 146.25 C60.25 88.75, 109.44 32.3, 134.37 2.86 M9.72 146.25 C54.4 93.76, 98.33 42.62, 134.37 2.86 M12.74 148.88 C41.92 114.56, 69.82 82.85, 138.7 3.97 M12.74 148.88 C51.61 104.92, 90.85 61.42, 138.7 3.97 M16.41 150.75 C59.55 100.27, 101.59 52.2, 142.38 5.84 M16.41 150.75 C44.81 118.01, 72.5 85.28, 142.38 5.84 M19.43 153.37 C53.71 117.26, 85.29 76.76, 145.4 8.47 M19.43 153.37 C44.87 122.84, 70.61 93.59, 145.4 8.47 M24.42 153.73 C52.67 122.95, 79.89 88.37, 148.42 11.09 M24.42 153.73 C64.46 108, 102.39 64.34, 148.42 11.09 M29.41 154.09 C76.82 102.43, 119.23 49.38, 150.78 14.47 M29.41 154.09 C64.85 113.57, 99.72 74.81, 150.78 14.47 M33.74 155.2 C64.3 119.94, 91.8 89.48, 152.49 18.6 M33.74 155.2 C67.79 115.84, 99.51 77.3, 152.49 18.6 M39.38 154.81 C79.96 103.09, 122.41 54.73, 152.88 24.25 M39.38 154.81 C79.86 109.93, 121.34 62.78, 152.88 24.25 M44.37 155.17 C78.68 115.86, 114.49 73.43, 153.93 29.13 M44.37 155.17 C70.77 123.62, 97.89 93.63, 153.93 29.13 M50.01 154.78 C79.29 120.98, 108.03 85.36, 155.64 33.27 M50.01 154.78 C74.93 127.45, 98.84 99.17, 155.64 33.27 M55 155.14 C87.9 115.55, 121.17 77.57, 155.38 39.67 M55 155.14 C87.06 120, 117.94 85.45, 155.38 39.67 M60.64 154.74 C93.38 120.35, 123.44 85.13, 155.11 46.06 M60.64 154.74 C84.27 126.49, 109.45 97.53, 155.11 46.06 M65.63 155.1 C98.58 118.9, 127.87 84.42, 155.51 51.71 M65.63 155.1 C86.86 131.46, 109.13 105.4, 155.51 51.71 M70.62 155.46 C98.16 126.16, 124.8 94.03, 155.25 58.1 M70.62 155.46 C89.13 133.29, 108.41 111.44, 155.25 58.1 M76.26 155.07 C102.17 125.88, 129.04 94.81, 155.64 63.75 M76.26 155.07 C106.94 119.08, 138.63 85.27, 155.64 63.75 M81.25 155.43 C104.81 131.25, 125.31 102.36, 155.38 70.14 M81.25 155.43 C97.42 136.34, 112.71 118.82, 155.38 70.14 M86.89 155.03 C101.22 136.93, 115.37 122.12, 155.12 76.54 M86.89 155.03 C113.42 125.47, 139.31 95.77, 155.12 76.54 M91.88 155.39 C111.71 133.86, 129.98 113.91, 155.51 82.19 M91.88 155.39 C113.15 130.28, 135.14 106.38, 155.51 82.19 M97.52 155 C115.18 135.33, 130.84 114.07, 155.25 88.58 M97.52 155 C121.01 129.46, 142.35 102.62, 155.25 88.58 M102.51 155.36 C120.89 134.92, 138.91 115.39, 155.65 94.23 M102.51 155.36 C114.09 140.47, 127.28 127.07, 155.65 94.23 M108.15 154.96 C119.63 141.85, 129.64 128.83, 155.39 100.62 M108.15 154.96 C122.19 138.55, 137.8 122.75, 155.39 100.62 M113.14 155.32 C123.36 142.6, 133.08 130.76, 155.12 107.02 M113.14 155.32 C121.86 145.52, 129.56 135.89, 155.12 107.02 M118.78 154.93 C126.85 147.35, 134.04 137.51, 155.52 112.66 M118.78 154.93 C132.51 140.34, 143.86 125.16, 155.52 112.66 M123.77 155.29 C129.98 144.52, 141.47 135.79, 155.26 119.06 M123.77 155.29 C136.03 140.69, 148.47 126.31, 155.26 119.06 M129.41 154.89 C138.53 143.13, 149.14 131.97, 156.31 123.95 M129.41 154.89 C135.23 147.23, 142.22 139.43, 156.31 123.95 M137.02 152.24 C138.39 149.36, 142.59 143.99, 151.45 135.63 M137.02 152.24 C141.26 148.47, 144.88 143.77, 151.45 135.63" stroke="#15aabf" stroke-width="0.5" fill="none"></path><path d="M32 0 M32 0 C52.08 -2.17, 68.41 -2.11, 121.49 0 M32 0 C55.49 0.13, 80.03 -0.57, 121.49 0 M121.49 0 C143.67 1.62, 153.5 9.32, 153.49 32 M121.49 0 C142.28 -1.07, 154.13 10.22, 153.49 32 M153.49 32 C154.46 50.77, 155.79 71.36, 153.49 121.49 M153.49 32 C153.39 64.88, 153.35 99.81, 153.49 121.49 M153.49 121.49 C153.7 144.66, 142.84 154.12, 121.49 153.49 M153.49 121.49 C154.14 142.16, 142.36 154.02, 121.49 153.49 M121.49 153.49 C102.03 153, 83.62 154.57, 32 153.49 M121.49 153.49 C100.18 153.04, 78.36 152.18, 32 153.49 M32 153.49 C11.96 154.62, -1.34 142.72, 0 121.49 M32 153.49 C12.69 154.3, 1.56 144.96, 0 121.49 M0 121.49 C2.06 99.56, -0.08 78.66, 0 32 M0 121.49 C-0.51 93.37, -0.09 66.02, 0 32 M0 32 C-0.1 11.44, 11.17 0.3, 32 0 M0 32 C-0.84 10.09, 8.84 1.52, 32 0" stroke="#000000" stroke-width="1" fill="none"></path></g><g transform="translate(213.31826455844453 566.6726563809677) rotate(0 63.07994842529297 12)"><text x="63.07994842529297" y="0" font-family="Virgil, Segoe UI Emoji" font-size="20px" fill="#000000" text-anchor="middle" style="white-space: pre;" direction="ltr" dominant-baseline="text-before-edge">Identity API</text></g><g stroke-linecap="round" transform="translate(1067.868180933082 694.3270630197662) rotate(0 76.74686880270599 76.74686880270605)"><path d="M7.86 8.16 C7.86 8.16, 7.86 8.16, 7.86 8.16 M7.86 8.16 C7.86 8.16, 7.86 8.16, 7.86 8.16 M3.66 19.09 C8.11 13.72, 11.26 13.26, 18.1 2.48 M3.66 19.09 C7 15.28, 10.62 11.49, 18.1 2.48 M2.75 26.24 C7.94 18.25, 14.57 12.03, 24.4 1.33 M2.75 26.24 C8.66 18.69, 14.49 12.26, 24.4 1.33 M2.48 32.64 C9.63 26.32, 16.29 18.83, 30.7 0.18 M2.48 32.64 C11.89 22.23, 21.09 10.92, 30.7 0.18 M2.88 38.28 C13.07 26.52, 27.66 10.61, 34.37 2.05 M2.88 38.28 C11.99 28.16, 19.93 19.5, 34.37 2.05 M2.62 44.68 C17.56 29.51, 28.11 13.22, 39.36 2.41 M2.62 44.68 C14.97 30.98, 27.14 17.8, 39.36 2.41 M2.36 51.07 C12.26 36.35, 24.43 25.22, 45 2.02 M2.36 51.07 C16.64 35.37, 29.72 20.61, 45 2.02 M2.75 56.72 C13.46 45.98, 22.94 34.83, 49.99 2.38 M2.75 56.72 C14.74 43.63, 26.8 30.72, 49.99 2.38 M2.49 63.11 C13.72 48.34, 24.94 35.92, 55.63 1.98 M2.49 63.11 C19.99 42.48, 37.73 21.7, 55.63 1.98 M2.23 69.51 C16.51 49.56, 34.36 32.33, 60.62 2.34 M2.23 69.51 C17.84 51.48, 33.11 33.14, 60.62 2.34 M2.62 75.16 C20.11 56.82, 34.59 37.94, 66.26 1.95 M2.62 75.16 C28.28 47.05, 54 17.75, 66.26 1.95 M2.36 81.55 C25.83 58.79, 47.41 31.95, 71.25 2.31 M2.36 81.55 C26.54 54.71, 50.22 25.45, 71.25 2.31 M2.1 87.95 C27.87 58.56, 51.43 31, 76.89 1.91 M2.1 87.95 C23.03 65.95, 40.49 43.55, 76.89 1.91 M2.49 93.59 C23.08 69.51, 45.22 45.35, 81.88 2.27 M2.49 93.59 C20.01 72.53, 38.09 52.66, 81.88 2.27 M2.23 99.99 C31.06 66.24, 64.46 29.94, 86.86 2.63 M2.23 99.99 C24.68 75.94, 45.13 51.13, 86.86 2.63 M1.97 106.39 C32.47 75.1, 57.73 42.53, 92.51 2.24 M1.97 106.39 C35.59 67.02, 69.13 28.13, 92.51 2.24 M2.37 112.03 C38.69 72.59, 74.75 31.33, 97.49 2.6 M2.37 112.03 C39.05 70.68, 74.38 30.66, 97.49 2.6 M2.1 118.43 C35.88 77.54, 71.14 38.24, 103.14 2.21 M2.1 118.43 C32.35 85.63, 62.11 49.81, 103.14 2.21 M2.5 124.07 C25.49 98.49, 45.66 74.34, 108.12 2.57 M2.5 124.07 C45.49 75.8, 87.17 27.1, 108.12 2.57 M3.55 128.96 C41.95 84.58, 81.97 37.11, 113.77 2.17 M3.55 128.96 C27.48 100.1, 53.23 73.65, 113.77 2.17 M2.63 136.11 C26.72 108.47, 49.61 81.6, 118.76 2.53 M2.63 136.11 C47.11 87.74, 90.11 36.88, 118.76 2.53 M4.34 140.25 C36.32 105.82, 66.67 67.6, 123.74 2.89 M4.34 140.25 C51.74 85.4, 97.94 31.3, 123.74 2.89 M7.36 142.87 C42.56 99.92, 79.44 58.66, 130.04 1.74 M7.36 142.87 C46.46 96.35, 86.12 51.39, 130.04 1.74 M9.72 146.25 C40.84 110.59, 71.14 76.38, 134.37 2.86 M9.72 146.25 C55.94 93.4, 103.36 39.72, 134.37 2.86 M12.74 148.88 C57.96 99.92, 98.66 53.16, 138.7 3.97 M12.74 148.88 C53.89 101.25, 95.73 54.12, 138.7 3.97 M16.41 150.75 C43.6 116.81, 73.94 84.31, 142.38 5.84 M16.41 150.75 C62.4 96.32, 107.27 42.29, 142.38 5.84 M19.43 153.37 C63.64 101.42, 104.91 54.74, 145.4 8.47 M19.43 153.37 C55.69 114.05, 88.65 73.55, 145.4 8.47 M24.42 153.73 C73.98 97.49, 122.2 43.49, 148.42 11.09 M24.42 153.73 C58.5 111.32, 94.42 70.17, 148.42 11.09 M29.41 154.09 C63.98 115.83, 98.69 76.07, 150.78 14.47 M29.41 154.09 C65.14 114.22, 100.71 73.86, 150.78 14.47 M33.74 155.2 C66.9 119.97, 96.62 84.51, 152.49 18.6 M33.74 155.2 C67.02 116.85, 100.29 80.28, 152.49 18.6 M39.38 154.81 C68.66 117.32, 100.89 81.58, 152.88 24.25 M39.38 154.81 C72.86 116.02, 106.62 76.66, 152.88 24.25 M44.37 155.17 C68.44 126.34, 96.19 93.63, 153.93 29.13 M44.37 155.17 C88.45 105.79, 129.57 58.3, 153.93 29.13 M50.01 154.78 C91.09 107.72, 134.97 58.62, 155.64 33.27 M50.01 154.78 C80.13 119.74, 109.6 86.19, 155.64 33.27 M55 155.14 C78.62 125.17, 103.37 98.38, 155.38 39.67 M55 155.14 C85.91 118.96, 119.33 82.07, 155.38 39.67 M60.64 154.74 C86.5 125.01, 108.84 98.45, 155.11 46.06 M60.64 154.74 C80.8 132.98, 99.17 110.84, 155.11 46.06 M65.63 155.1 C87.6 131.33, 109.01 105.53, 155.51 51.71 M65.63 155.1 C90.77 125.76, 116.14 96.08, 155.51 51.71 M70.62 155.46 C90.19 133.33, 111.8 109.69, 155.25 58.1 M70.62 155.46 C96.49 126.87, 121.02 98.11, 155.25 58.1 M76.26 155.07 C95.08 135.71, 111.83 116.02, 155.64 63.75 M76.26 155.07 C101.51 126.7, 125.6 99.23, 155.64 63.75 M81.25 155.43 C100.14 129.96, 122.89 105.97, 155.38 70.14 M81.25 155.43 C108.64 123.3, 137.04 90.29, 155.38 70.14 M86.89 155.03 C108.95 130.88, 131.17 105.05, 155.12 76.54 M86.89 155.03 C109.3 127.64, 134.09 100.8, 155.12 76.54 M91.88 155.39 C106.8 137.88, 119.08 121.65, 155.51 82.19 M91.88 155.39 C111.86 133.41, 131.11 108.19, 155.51 82.19 M97.52 155 C114.9 134.68, 135.65 110.65, 155.25 88.58 M97.52 155 C119.89 128.72, 143.84 102.54, 155.25 88.58 M102.51 155.36 C120.54 133.83, 137.66 112.35, 155.65 94.23 M102.51 155.36 C122.64 131.47, 143.11 107.85, 155.65 94.23 M108.15 154.96 C128.18 133.17, 144.33 113.42, 155.39 100.62 M108.15 154.96 C124.67 135.52, 138.84 118.01, 155.39 100.62 M113.14 155.32 C130.63 138.03, 143.66 117.19, 155.12 107.02 M113.14 155.32 C124.82 140.42, 136.45 126.86, 155.12 107.02 M118.78 154.93 C128.62 145.11, 137.44 133.75, 155.52 112.66 M118.78 154.93 C131.81 140.72, 143.72 128.17, 155.52 112.66 M123.77 155.29 C134.74 145.89, 141.09 133.23, 155.26 119.06 M123.77 155.29 C134.72 142.72, 146.84 129.93, 155.26 119.06 M129.41 154.89 C140.26 145.44, 148.52 130.86, 156.31 123.95 M129.41 154.89 C138.87 141.92, 150.91 131.51, 156.31 123.95 M137.02 152.24 C143.07 146.56, 148.55 140.42, 151.45 135.63 M137.02 152.24 C141.03 146.32, 147.2 140.46, 151.45 135.63" stroke="#868e96" stroke-width="0.5" fill="none"></path><path d="M32 0 M32 0 C49.3 1.23, 71.09 2.53, 121.49 0 M32 0 C51.63 -0.58, 71.25 0.15, 121.49 0 M121.49 0 C144.59 -0.02, 154.08 9.58, 153.49 32 M121.49 0 C144.57 1.12, 155.04 12.72, 153.49 32 M153.49 32 C152.17 52.6, 152.59 69.02, 153.49 121.49 M153.49 32 C153.27 56.29, 152.88 81.27, 153.49 121.49 M153.49 121.49 C154.51 141.63, 142.08 152.76, 121.49 153.49 M153.49 121.49 C152.48 144.18, 144.89 152.18, 121.49 153.49 M121.49 153.49 C90.62 152.95, 57.72 152.81, 32 153.49 M121.49 153.49 C88.3 152.94, 57.47 152.43, 32 153.49 M32 153.49 C12.42 153.74, -1.56 141.43, 0 121.49 M32 153.49 C11.62 154.89, 1.06 144.75, 0 121.49 M0 121.49 C2.05 91.25, 0.88 62.23, 0 32 M0 121.49 C-0.99 95.38, 0.06 66.99, 0 32 M0 32 C1.73 10.39, 8.68 -1.41, 32 0 M0 32 C1.62 12.05, 9.76 -1.22, 32 0" stroke="#000000" stroke-width="1" fill="none"></path></g><g transform="translate(1083.2151092450654 747.0739318224723) rotate(0 61.399940490722656 24)"><text x="61.399940490722656" y="0" font-family="Virgil, Segoe UI Emoji" font-size="20px" fill="#000000" text-anchor="middle" style="white-space: pre;" direction="ltr" dominant-baseline="text-before-edge">3rd party </text><text x="61.399940490722656" y="24" font-family="Virgil, Segoe UI Emoji" font-size="20px" fill="#000000" text-anchor="middle" style="white-space: pre;" direction="ltr" dominant-baseline="text-before-edge">email service</text></g><g stroke-linecap="round" transform="translate(447.61884659094153 702.3390192678487) rotate(0 76.74686880270605 76.74686880270605)"><path d="M7.86 8.16 C7.86 8.16, 7.86 8.16, 7.86 8.16 M7.86 8.16 C7.86 8.16, 7.86 8.16, 7.86 8.16 M3.66 19.09 C8.75 13.89, 15.61 3.81, 18.1 2.48 M3.66 19.09 C9.28 14.14, 13.14 7.25, 18.1 2.48 M2.75 26.24 C5.72 19.78, 12.94 14.06, 24.4 1.33 M2.75 26.24 C8.56 20.35, 13.08 14.96, 24.4 1.33 M2.48 32.64 C10.54 20.82, 21.09 13.35, 30.7 0.18 M2.48 32.64 C13.57 22.05, 23.4 10.47, 30.7 0.18 M2.88 38.28 C16.85 23.68, 28.18 10.63, 34.37 2.05 M2.88 38.28 C10.49 29.88, 15.6 22.95, 34.37 2.05 M2.62 44.68 C11.8 37.3, 17.03 25.5, 39.36 2.41 M2.62 44.68 C16.47 30.24, 29.61 14.43, 39.36 2.41 M2.36 51.07 C17.64 35.95, 32.48 16.76, 45 2.02 M2.36 51.07 C17 34.17, 30.04 17.85, 45 2.02 M2.75 56.72 C18.69 36.49, 36.48 20.93, 49.99 2.38 M2.75 56.72 C13.86 44.43, 26.55 30.21, 49.99 2.38 M2.49 63.11 C23.09 40.48, 41.7 18.26, 55.63 1.98 M2.49 63.11 C20.68 41.24, 41.22 18.71, 55.63 1.98 M2.23 69.51 C23.38 44.76, 48.63 18.82, 60.62 2.34 M2.23 69.51 C23.63 44.87, 46.85 18.53, 60.62 2.34 M2.62 75.16 C26.03 45.4, 53.38 19.33, 66.26 1.95 M2.62 75.16 C17.07 56.05, 34.84 38.86, 66.26 1.95 M2.36 81.55 C18.84 58.89, 37.64 38.46, 71.25 2.31 M2.36 81.55 C25.46 54.34, 47.88 27.79, 71.25 2.31 M2.1 87.95 C29.06 56.6, 55.17 29.67, 76.89 1.91 M2.1 87.95 C24.93 61.65, 48.5 33.64, 76.89 1.91 M2.49 93.59 C31.65 60.83, 58.9 25.14, 81.88 2.27 M2.49 93.59 C28.98 62.51, 55.49 33.49, 81.88 2.27 M2.23 99.99 C31.43 67.41, 57.95 34.38, 86.86 2.63 M2.23 99.99 C25.03 72.65, 48.28 44.99, 86.86 2.63 M1.97 106.39 C32.34 74.29, 62.13 39.75, 92.51 2.24 M1.97 106.39 C34.15 68.08, 68.57 31.07, 92.51 2.24 M2.37 112.03 C31 74.85, 63.54 43.28, 97.49 2.6 M2.37 112.03 C40.9 68.18, 78.04 26.42, 97.49 2.6 M2.1 118.43 C23.7 90.59, 47.6 63.54, 103.14 2.21 M2.1 118.43 C33.04 82.31, 64.09 46.59, 103.14 2.21 M2.5 124.07 C42.38 77.36, 80.44 35.7, 108.12 2.57 M2.5 124.07 C36.6 86.35, 70.34 47.97, 108.12 2.57 M3.55 128.96 C28.51 101.43, 49.93 74.89, 113.77 2.17 M3.55 128.96 C27.12 103.4, 50.33 76.98, 113.77 2.17 M2.63 136.11 C31.42 100.53, 61.32 66.59, 118.76 2.53 M2.63 136.11 C33.39 101.61, 63.65 68.22, 118.76 2.53 M4.34 140.25 C37.16 103.35, 69.25 64.25, 123.74 2.89 M4.34 140.25 C48.96 88.62, 95.28 36.35, 123.74 2.89 M7.36 142.87 C42.12 101.58, 76.31 62.5, 130.04 1.74 M7.36 142.87 C34.44 110.94, 62.8 80.07, 130.04 1.74 M9.72 146.25 C38.84 111.71, 67.14 78.18, 134.37 2.86 M9.72 146.25 C48.28 100.72, 89.31 55.52, 134.37 2.86 M12.74 148.88 C41.2 121.99, 67.01 90.54, 138.7 3.97 M12.74 148.88 C58.83 95.79, 105.18 41.7, 138.7 3.97 M16.41 150.75 C43.14 119.48, 70.57 90.48, 142.38 5.84 M16.41 150.75 C66.76 94.23, 116.33 36.17, 142.38 5.84 M19.43 153.37 C58.14 106.47, 97.34 63.47, 145.4 8.47 M19.43 153.37 C51.09 117.02, 81.69 79.66, 145.4 8.47 M24.42 153.73 C67.84 104.56, 109.15 57.16, 148.42 11.09 M24.42 153.73 C67.63 103.94, 109.87 55.53, 148.42 11.09 M29.41 154.09 C75.71 102.42, 119.86 47.83, 150.78 14.47 M29.41 154.09 C74.18 103.2, 118.24 54.31, 150.78 14.47 M33.74 155.2 C55.96 126.4, 84.57 98.32, 152.49 18.6 M33.74 155.2 C78.87 103.78, 124.51 50.8, 152.49 18.6 M39.38 154.81 C77.77 114.58, 110.52 74.08, 152.88 24.25 M39.38 154.81 C64.14 127.82, 87.6 101.17, 152.88 24.25 M44.37 155.17 C72.75 123.35, 104.11 86.81, 153.93 29.13 M44.37 155.17 C77.44 117.12, 109.33 80.95, 153.93 29.13 M50.01 154.78 C77.58 122.03, 106.95 89.95, 155.64 33.27 M50.01 154.78 C74.72 127.86, 99.83 98.82, 155.64 33.27 M55 155.14 C78.18 126.2, 104.01 102.1, 155.38 39.67 M55 155.14 C88.59 117.45, 121.57 78.68, 155.38 39.67 M60.64 154.74 C94.05 115.1, 125.45 75.24, 155.11 46.06 M60.64 154.74 C88.62 123.34, 115.57 92.05, 155.11 46.06 M65.63 155.1 C84.38 130.78, 106.8 107.8, 155.51 51.71 M65.63 155.1 C96.08 120.26, 126.24 83.03, 155.51 51.71 M70.62 155.46 C97.34 121.85, 126.57 87.32, 155.25 58.1 M70.62 155.46 C101.84 118.65, 131.68 84.49, 155.25 58.1 M76.26 155.07 C97.91 126.82, 122.26 102.47, 155.64 63.75 M76.26 155.07 C93.69 134.5, 111.21 113.61, 155.64 63.75 M81.25 155.43 C108.93 127.53, 132.92 96.89, 155.38 70.14 M81.25 155.43 C99.79 131.97, 119.88 110.2, 155.38 70.14 M86.89 155.03 C101.06 137.05, 117.53 122.28, 155.12 76.54 M86.89 155.03 C103.73 135.74, 121.45 115.74, 155.12 76.54 M91.88 155.39 C116.13 130.76, 136.6 106.39, 155.51 82.19 M91.88 155.39 C111.86 132.36, 131.6 110.07, 155.51 82.19 M97.52 155 C118.64 130.64, 140.11 106.5, 155.25 88.58 M97.52 155 C109.5 141.55, 122.48 127.47, 155.25 88.58 M102.51 155.36 C113.99 140.51, 125 125.25, 155.65 94.23 M102.51 155.36 C116.06 138.41, 131.72 122.38, 155.65 94.23 M108.15 154.96 C121.53 141.32, 136.39 125.98, 155.39 100.62 M108.15 154.96 C126.67 134.58, 144.77 113.81, 155.39 100.62 M113.14 155.32 C128.15 136.49, 147.53 114.88, 155.12 107.02 M113.14 155.32 C122.72 145.58, 130.97 135.16, 155.12 107.02 M118.78 154.93 C131.31 138.73, 145.45 125.53, 155.52 112.66 M118.78 154.93 C133.22 137.45, 148.26 120.58, 155.52 112.66 M123.77 155.29 C135.08 144.04, 147.45 129.6, 155.26 119.06 M123.77 155.29 C130.03 148.04, 137.37 138, 155.26 119.06 M129.41 154.89 C136.4 147.12, 143.18 136.43, 156.31 123.95 M129.41 154.89 C135.47 147.47, 141.5 142.06, 156.31 123.95 M137.02 152.24 C141.27 146.83, 146.57 144.75, 151.45 135.63 M137.02 152.24 C141.4 145.88, 147.08 140.82, 151.45 135.63" stroke="#be4bdb" stroke-width="0.5" fill="none"></path><path d="M32 0 M32 0 C60.28 -0.31, 91.38 2.33, 121.49 0 M32 0 C57.68 -0.04, 84.17 1.18, 121.49 0 M121.49 0 C142.56 -1.43, 153.9 9.68, 153.49 32 M121.49 0 C140.63 -2.22, 153.76 9.05, 153.49 32 M153.49 32 C152.6 51.12, 153.49 70.9, 153.49 121.49 M153.49 32 C153.55 60.11, 153.95 86.18, 153.49 121.49 M153.49 121.49 C154.61 142.38, 141.9 155.16, 121.49 153.49 M153.49 121.49 C154.27 142.31, 144.38 153.72, 121.49 153.49 M121.49 153.49 C87.93 152.03, 48.96 152.95, 32 153.49 M121.49 153.49 C90 153.85, 60.66 153.92, 32 153.49 M32 153.49 C11.47 155.13, -0.48 144.81, 0 121.49 M32 153.49 C8.69 155.29, 1.04 140.58, 0 121.49 M0 121.49 C-0.22 93.81, 1.69 69.48, 0 32 M0 121.49 C1.64 101.55, 1.41 81.35, 0 32 M0 32 C0.92 10.73, 11.74 -0.6, 32 0 M0 32 C-2.07 12.84, 9.47 0.56, 32 0" stroke="#000000" stroke-width="1" fill="none"></path></g><g transform="translate(470.7357715459914 755.0858880705548) rotate(0 53.62994384765625 24)"><text x="53.62994384765625" y="0" font-family="Virgil, Segoe UI Emoji" font-size="20px" fill="#000000" text-anchor="middle" style="white-space: pre;" direction="ltr" dominant-baseline="text-before-edge">Subscriber </text><text x="53.62994384765625" y="24" font-family="Virgil, Segoe UI Emoji" font-size="20px" fill="#000000" text-anchor="middle" style="white-space: pre;" direction="ltr" dominant-baseline="text-before-edge">API</text></g><g stroke-linecap="round"><g transform="translate(109.95700260920682 423.98691224372465) rotate(0 617.882094810588 -4.837026700771418)"><path d="M0.05 -1.14 C206.08 -2.45, 1029.75 -7.49, 1235.71 -8.54" stroke="#364fc7" stroke-width="1.5" fill="none" stroke-dasharray="8 9"></path></g></g><mask></mask><g stroke-linecap="round" transform="translate(712.0003609456776 10) rotate(0 75.543219547423 75.543219547423)"><path d="M13.03 63 C13.03 63, 13.03 63, 13.03 63 M13.03 63 C13.03 63, 13.03 63, 13.03 63 M6.21 76.95 C22.77 58.53, 38.4 41.66, 53.45 22.61 M6.21 76.95 C24.03 56.86, 41.03 36.31, 53.45 22.61 M7.92 81.08 C22.96 60.16, 40.77 42.36, 72.87 6.37 M7.92 81.08 C28.79 58.18, 51.51 34.02, 72.87 6.37 M9.62 85.22 C26.93 65, 45.37 44.24, 78.51 5.97 M9.62 85.22 C25.42 67.16, 41.03 49.47, 78.51 5.97 M12.64 87.84 C37.86 56.82, 67.1 24.08, 82.18 7.84 M12.64 87.84 C27.97 68.93, 43.58 50.25, 82.18 7.84 M15 91.22 C41.29 64.7, 65.34 35.45, 85.2 10.46 M15 91.22 C33.63 70.24, 52.04 48.21, 85.2 10.46 M18.02 93.84 C34.46 73.73, 50.69 52.58, 88.22 13.09 M18.02 93.84 C39.62 68.26, 62.65 41.6, 88.22 13.09 M21.04 96.47 C43.87 70.74, 65.14 45.5, 91.24 15.71 M21.04 96.47 C45.58 67.1, 70.04 40.94, 91.24 15.71 M24.06 99.09 C46.28 71.6, 71.51 44.59, 94.26 18.34 M24.06 99.09 C39.76 83.02, 55.1 64.08, 94.26 18.34 M26.42 102.47 C51.85 74.56, 77.73 44.57, 97.28 20.96 M26.42 102.47 C44.09 81.15, 63.42 61.35, 97.28 20.96 M29.44 105.09 C50.68 83.25, 67.65 60.75, 100.3 23.59 M29.44 105.09 C50.87 80.96, 71.19 57.74, 100.3 23.59 M32.46 107.72 C54.76 82.03, 79.17 57.96, 102.66 26.96 M32.46 107.72 C53.04 85.11, 71.39 63.78, 102.66 26.96 M35.48 110.34 C62.06 79.06, 91 46.66, 105.68 29.59 M35.48 110.34 C58.09 84.15, 79.9 57.08, 105.68 29.59 M37.84 113.72 C53.41 95.55, 69.58 76.29, 108.7 32.21 M37.84 113.72 C57.18 90.38, 76.76 68.86, 108.7 32.21 M40.86 116.35 C60.68 94.84, 80.86 71.56, 111.06 35.59 M40.86 116.35 C54.59 98, 69.57 81.12, 111.06 35.59 M43.88 118.97 C63.25 99.71, 78.26 77.03, 114.08 38.22 M43.88 118.97 C70.99 88.51, 95.42 59.4, 114.08 38.22 M46.9 121.59 C67.3 99.85, 86.09 77.29, 117.1 40.84 M46.9 121.59 C65.27 99.74, 86.75 75.9, 117.1 40.84 M49.26 124.97 C75.22 94.05, 98.19 66.3, 119.46 44.22 M49.26 124.97 C68.78 102.27, 87.84 80.91, 119.46 44.22 M52.28 127.6 C77.26 95.9, 106.81 65.16, 122.48 46.84 M52.28 127.6 C80.38 97.45, 107.54 65.09, 122.48 46.84 M55.3 130.22 C82.6 99.17, 110.23 66.92, 125.5 49.47 M55.3 130.22 C78.48 101.54, 104.21 72.96, 125.5 49.47 M58.32 132.85 C81.57 105.22, 106.17 80.23, 127.86 52.85 M58.32 132.85 C73.66 114.78, 88.51 96.82, 127.86 52.85 M61.34 135.47 C78.97 116.4, 92.6 101.28, 130.88 55.47 M61.34 135.47 C85.98 106.86, 112.1 78.96, 130.88 55.47 M63.7 138.85 C89.06 110.42, 114.73 81.42, 133.9 58.1 M63.7 138.85 C87.99 109.77, 112.28 82.91, 133.9 58.1 M66.72 141.47 C82.39 126.89, 96.71 109.61, 136.26 61.47 M66.72 141.47 C88.35 115.54, 109.72 90.66, 136.26 61.47 M70.39 143.34 C96.88 113, 121.08 83.75, 139.28 64.1 M70.39 143.34 C85.66 126.14, 100.63 109.66, 139.28 64.1 M74.07 145.21 C94.61 119.66, 117.7 96.25, 142.3 66.72 M74.07 145.21 C88.98 128.37, 104.21 111.08, 142.3 66.72 M77.09 147.84 C92.07 132.1, 104.52 116.31, 144.01 70.86 M77.09 147.84 C101.8 120.64, 125.06 93.61, 144.01 70.86 M87.32 142.16 C109.83 114.94, 131.2 90.11, 146.37 74.24 M87.32 142.16 C106.42 119.28, 126.24 97.5, 146.37 74.24" stroke="#228be6" stroke-width="0.5" fill="none"></path><path d="M95 19 M95 19 C108.16 32.58, 122.94 47.86, 132.09 57 M132.09 57 C152.08 75.73, 149.66 76.41, 132.09 95 M132.09 95 C122.67 102.52, 111.55 112.81, 95 132.09 M95 132.09 C76.25 150.37, 75.43 151.26, 57 132.09 M57 132.09 C47.81 121.95, 37.53 112.51, 19 95 M19 95 C-0.99 77.12, -0.45 75.07, 19 57 M19 57 C34.78 42.72, 49.94 26.39, 57 19 M57 19 C74.69 1.98, 75.12 -1.45, 95 19" stroke="#000000" stroke-width="1.5" fill="none" stroke-dasharray="1.5 7"></path></g><g transform="translate(755.8935680094281 71.9716097737114) rotate(0 31.878402709960938 13.800000000000011)"><text x="31.878402709960938" y="0" font-family="Virgil, Segoe UI Emoji" font-size="23.57142857142856px" fill="#000000" text-anchor="middle" style="white-space: pre;" direction="ltr" dominant-baseline="text-before-edge">Client</text></g><g stroke-linecap="round"><g transform="translate(786.4226032209399 163.5653339392361) rotate(0 0.9440090074881482 143.1117120476563)"><path d="M0.13 0.4 C0.46 47.83, 2.68 237.88, 3.15 285.3 M-1.27 -0.43 C-1.21 47.11, 1.54 238.93, 2.09 286.65" stroke="#000000" stroke-width="1" fill="none"></path></g></g><mask></mask><g mask="url(#mask-fN2hPisHlAaOyh75dKVpa)" stroke-linecap="round"><g transform="translate(760.3792266876395 135.33629885175787) rotate(0 -202.33216810686883 200.63418608884794)"><path d="M0.01 0.43 C-67.35 67.24, -336.57 333.31, -403.68 400.06 M-1.45 -0.39 C-69.01 66.71, -337.76 335.08, -404.67 401.66" stroke="#000000" stroke-width="1" fill="none"></path></g></g><mask id="mask-fN2hPisHlAaOyh75dKVpa"><rect x="0" y="0" fill="#fff" width="1263.9666835132925" height="635.2891694146633"></rect><rect x="488.03556388760603" y="323.3127341332106" fill="#000" width="141.09986877441406" height="24" opacity="1"></rect></mask><g transform="translate(488.03556388760603 323.3127341332106) rotate(0 70.01149469316476 12.657750807395217)"><text x="70.54993438720703" y="0" font-family="Virgil, Segoe UI Emoji" font-size="20px" fill="#000000" text-anchor="middle" style="white-space: pre;" direction="ltr" dominant-baseline="text-before-edge">Authentication</text></g><g stroke-linecap="round" transform="translate(131.6291843418402 1067.410823525917) rotate(0 530 17)"><path d="M0 0 C0 0, 0 0, 0 0 M0 0 C0 0, 0 0, 0 0 M-0.23 6.29 C2.14 4.63, 3.86 2.23, 4.8 0.58 M-0.02 6.34 C1.16 5.32, 1.99 3.9, 5.12 0.3 M1.69 13.64 C2.81 7.84, 4.92 5.77, 10.51 1.43 M0.72 12.58 C2.65 8.68, 4.49 7.1, 10 0.71 M1.16 17.78 C4.45 12.78, 8.66 6.49, 17.35 -0.47 M-1.1 19.13 C4.77 11.04, 12.34 4.78, 14.69 -0.42 M0.86 24.38 C7.23 19.46, 13.27 12.2, 23.05 -0.73 M-0.47 24.61 C5.98 17.66, 11.5 13.24, 21.29 -1.03 M-1.15 29.66 C7.33 23.73, 11.51 17.2, 25.92 0.42 M-0.64 30.08 C8.84 19.21, 17.8 9.27, 25.26 0.78 M-0.87 36.87 C8.39 26.83, 18.02 18.18, 32.41 0.1 M1.11 34.65 C8.11 25.83, 16.32 16.91, 32.5 -1.02 M8.5 36.49 C17.1 22.63, 29.33 9.68, 38.4 0.7 M6.46 35.22 C15.73 24.33, 23.54 13.86, 36.64 1.04 M13.27 35.07 C22.73 22.83, 36.24 9.63, 40.87 1.3 M10.91 34.98 C20.29 25.4, 30.33 13.6, 43.05 -0.8 M16.79 35.3 C26.88 25.37, 33.01 13.92, 47.21 1.25 M17.66 35.35 C28.01 22.52, 37.37 11.58, 48.34 -0.3 M20.85 36.18 C33.05 21.76, 47.54 6.97, 54.96 -0.38 M23.11 35.77 C28.78 27.34, 35.24 20.14, 52.37 0.03 M29.33 36.38 C35.58 25.2, 42.58 18.44, 57.03 -1.29 M28.95 34.9 C34.06 28.15, 41.39 19, 57.75 0.22 M33.54 33.84 C45.57 21.6, 56.17 7.53, 65.5 -0.43 M33.58 35.96 C41.91 26.69, 49.21 17.58, 63.8 0 M39.92 33.23 C50.2 23.05, 62.82 7.87, 68.8 1.48 M38.16 33.89 C47.83 23.52, 58.38 10.93, 68.11 0.18 M43.29 33.45 C54.74 25.76, 64.08 13.68, 75.52 1.43 M44.08 34.66 C52.61 24.31, 62.97 12.55, 74.51 -0.24 M50.61 35.12 C56.84 29.48, 63.13 21.75, 79.67 1.68 M48.98 34.47 C56.11 26.33, 64.2 16.94, 78.57 -0.7 M54.25 36.13 C62.4 28.05, 66.4 19.49, 84.35 1.19 M54.24 35.07 C61.5 25.33, 69.41 17.49, 85.58 0.08 M59.71 35.06 C66.22 27.99, 71.35 22.25, 91.08 -0.8 M58.98 34.92 C70.85 23.38, 80.37 11.46, 90.12 -0.58 M62.86 34.77 C70.22 26.49, 77.71 19.72, 95.51 -1.37 M65.57 34.53 C77.15 21.12, 90.02 6.42, 95.96 -0.13 M69.75 33.82 C79.49 27.11, 83.24 17.83, 100.7 1.68 M69.61 35.64 C76.02 28.31, 82.7 19.11, 101.64 0.5 M73.8 34.02 C87.7 22.11, 100.01 8.56, 104.82 1.25 M75.44 34.51 C83.06 28.27, 88.97 20.57, 106.45 0.14 M78.9 36.65 C91.94 21.71, 102.64 8.51, 110.46 0.51 M79.52 35.9 C89.71 25.33, 97.79 14.67, 111.9 0.63 M87.98 34.25 C98.15 24.48, 108.17 11.63, 115.68 1.07 M85.12 34.59 C93.68 27.13, 100.44 17.17, 117.11 0.8 M91.51 34.32 C99.09 22.88, 108.3 13.8, 122.54 -1.18 M91.21 34.86 C98.76 27.58, 104.62 19.92, 121.53 0.02 M98.59 35.6 C109.34 22.88, 120.33 8.65, 125.68 -0.4 M95.73 34.48 C103.74 26.89, 111.1 17.65, 127.8 -0.37 M102.22 35.58 C109.28 26.31, 114.45 20.39, 131.36 -0.5 M101.11 36.03 C113.94 22.16, 125.49 7.35, 133.02 -1 M107.05 33.97 C116.6 23.52, 124.85 15.6, 138.73 0.34 M108.28 34.03 C116.51 24.68, 126.31 13.39, 138.31 0.77 M110.59 36.21 C122.49 22.75, 134.4 10.64, 143.59 1.18 M112.16 36.32 C122.88 25.42, 130.93 13.93, 142.77 0.05 M119.03 36.98 C126.02 26.03, 136.83 16.13, 147.63 1.82 M117.65 35.2 C124.44 25.78, 133.04 17.26, 148.97 -0.25 M124.42 35.7 C130.83 26.31, 142.71 16.03, 154.17 -1.74 M123.17 34.76 C128.58 28.83, 135.96 20.92, 153.01 -0.25 M128.46 36.02 C136.15 28.78, 143.36 18.92, 157.43 -1.71 M128.6 34.07 C135.62 26.65, 142.38 18.95, 157.97 0.22 M131.76 33.33 C141.2 23.6, 150.83 15.64, 166.27 0.87 M132.84 34.49 C145.23 22.91, 155.12 10.18, 163.9 0.81 M137.53 34.24 C145.45 26.65, 155.14 19.73, 169.43 -0.24 M139.76 34.86 C151.07 21.81, 162.7 7.78, 169.37 -0.04 M144.9 36.11 C152.98 22.37, 164.16 13.31, 175.31 -1.1 M143.73 34.79 C153.21 26.18, 160.87 15.51, 175.43 0.08 M148.64 34.51 C162.15 22.9, 170.22 10.08, 181.18 0 M149.62 33.9 C161.37 21.84, 172.21 9.55, 179.12 0.86 M156.41 34.79 C163.96 21.39, 174.1 12.3, 184.96 -2.02 M154.29 35.07 C163.88 26.43, 171.73 17.15, 185.48 0.5 M160.49 35.48 C172.3 21.14, 182.07 9.22, 190.48 0.51 M160.58 35.66 C170.83 22.77, 181.32 10.22, 191.04 0.96 M167.07 35.89 C175.75 24.91, 183.5 13.76, 195.17 -0.5 M164.84 34.84 C172.57 27.9, 178.22 21.53, 195.82 -0.82 M171.99 35.53 C181.82 24.33, 191.73 10.28, 199.38 -1.43 M170.9 34.73 C182.68 22.42, 193.74 8.05, 200.82 0.4 M177.95 33.67 C183.2 27.54, 188.05 17.7, 206.09 0.59 M175.57 35.75 C183.79 26.14, 190.6 16.89, 206.06 -0.68 M182.32 32.79 C191.16 24.98, 200.32 15.34, 210.18 -0.82 M182.69 33.82 C189.76 24.59, 199.09 15.81, 212.03 -0.55 M186.34 34.14 C199.88 23.78, 210.15 10.25, 218.17 -1.85 M186.55 35.59 C197.49 22.07, 206.77 11.44, 217.72 0.26 M190.91 33.16 C201.21 23.69, 211.1 12.03, 221.44 -0.9 M191.97 33.76 C200.55 24.28, 209.1 15.12, 222.11 0.52 M197.79 35.06 C207.24 23.53, 214.97 13.76, 228.06 0.81 M197.73 34.26 C203.75 26.55, 210.99 20.03, 228.17 -0.53 M200.77 35.02 C216.34 21.89, 224.64 7.92, 231.96 -1.16 M201.96 36.28 C210.67 26.54, 219.11 16.93, 232.38 0.14 M206.11 33.95 C218.29 24.76, 227.35 14.97, 240.05 1.71 M208.91 35.77 C215.28 25.19, 224.88 16.69, 238.03 1.29 M213.15 34.26 C223.17 21.44, 234.58 8.34, 244.78 -1.33 M213.73 34.94 C222.14 25.28, 230.78 14.27, 244.03 0.95 M217.34 36.07 C227.57 23.77, 237.56 12.85, 248.62 -0.52 M217.8 34.27 C227.11 27.11, 232.77 17.21, 249.72 -0.09 M223.56 36.76 C232.52 25.24, 245.25 12.23, 255.2 -1.4 M224.25 35.74 C231.82 26.97, 239.39 16.65, 254.14 -0.27 M229.79 34.43 C235.5 29.11, 240.8 19.69, 258.54 -1.24 M229.96 34.05 C239.62 23.62, 250.46 11.65, 259.6 -0.06 M232.43 35.41 C242.46 25.82, 249.45 19.9, 266.78 -1.61 M235.03 35.98 C242.7 26.66, 248.7 18.94, 265.64 -0.63 M238 33.78 C247.98 28.03, 253.68 16.78, 271.48 -0.82 M240.83 35.51 C250.93 20.8, 261.89 8.14, 270.55 -0.66 M244.43 34.85 C251.95 26.32, 260.83 16.6, 275.32 1.55 M245.46 35.15 C255.48 23.06, 266.58 9.15, 275.36 -1.08 M248.78 34.65 C261.98 24.67, 271.4 12.67, 281.38 0.14 M249.74 35.17 C262.09 22.04, 272.42 10.74, 281.33 0.19 M256.5 35.46 C265.55 22.51, 273.89 14.77, 284.87 -0.66 M254.78 34.83 C266.82 23.32, 276.92 11.52, 285.98 -0.5 M261.18 33.29 C270.3 24.63, 276.64 17.74, 290.4 0.77 M261.88 35.67 C271.16 24.38, 278.72 14.71, 290.57 0.71 M265.81 33.39 C272.09 28.81, 279.06 18, 295.73 -1.22 M266.13 34.73 C276.05 24.82, 284.97 13.86, 296.08 0.41 M270.5 33.72 C281.65 23.2, 287.65 14.67, 300.98 -0.04 M272.32 35.8 C280.48 25.32, 288.16 17.35, 302.77 -0.77 M277.77 36.51 C284.11 28.47, 290.39 16.94, 308.44 -1.38 M276.51 34.69 C283.9 26.91, 289.62 20.62, 308.1 -0.96 M284.28 35.69 C288.47 25.82, 298.01 18.55, 311.78 0.34 M281.99 34.46 C291.31 24.41, 299.41 15.57, 312.31 0.23 M286.08 36.47 C296.97 23.44, 310.2 8.47, 319.82 1.39 M286.81 34.68 C293.57 27.48, 298.79 21.24, 318.36 -1.08 M294.34 34.73 C303.83 24.24, 313.57 9.38, 321.75 0.3 M293.72 34.66 C299.95 26.6, 306.49 18.21, 323.46 0.27 M296.65 36.64 C303.62 27.35, 309.72 19.79, 326.91 1.33 M297.77 34.77 C305.84 26.55, 314.18 15.95, 329.05 -0.31 M304.71 34.08 C309.8 27.26, 314.73 21.44, 334.04 1.98 M304.21 35.57 C315.57 21.39, 326.78 8.31, 334.33 0.09 M307.65 36.18 C318.99 21.32, 332.56 6.58, 339.01 0.47 M308.04 35.19 C320.36 21.77, 332.76 8.17, 340.24 -0.87 M315.06 33.53 C320.61 28.15, 325.94 22, 344.09 -0.74 M313.35 35.21 C319.79 26.1, 328.47 17.9, 344.94 0.51 M317.53 33.96 C328.63 26.73, 335.41 15.95, 349.02 1.31 M320.11 34.27 C328.7 24.41, 339.39 11.83, 349.21 -0.09 M323.23 34.31 C335.18 25.59, 343.56 14.45, 355.57 1.78 M324.92 35.48 C332.87 25.23, 342.5 15.55, 355.17 0.51 M328.95 36.62 C342.64 20.28, 352.57 7.73, 360.04 -0.14 M330.37 34.47 C339.72 22.45, 351.64 12.19, 361.1 0.52 M333.37 35.69 C345.14 26.28, 350.42 17.35, 364.4 -1.06 M334.57 34.64 C343.55 25.36, 350.91 16.82, 364.77 -0.84 M340.83 34.55 C349.3 21.05, 361.05 12.34, 369.49 2.14 M341.08 34.38 C347.71 27.72, 353.94 18.75, 370.95 -0.12 M346.54 35.95 C354.09 26.97, 361.15 17.74, 374.78 -0.15 M346.49 36.36 C353.64 25.26, 361.26 17.18, 377.38 -0.32 M352.36 33.88 C358.38 24.21, 369.36 15.54, 379.64 1.16 M350.36 34.72 C358.93 28.14, 365.45 18.53, 382.31 0.27 M356.03 37.08 C364.68 27.75, 370.87 21.53, 387.11 1.42 M356.75 34.41 C363.79 25.84, 372.15 16.84, 386.49 -0.6 M362.95 36.51 C372.16 23.57, 382.13 14.19, 393.07 1.68 M362.22 34.33 C373.15 21.65, 385.13 7.01, 392.65 0.08 M367.4 36.86 C376.17 24.59, 385.06 15.86, 398.07 0.27 M367.3 34.68 C377.71 22.57, 389.81 9.04, 397.5 -0.2 M372.29 36.06 C381.35 23.48, 394.01 11.08, 404.56 0.22 M372.54 34.16 C384.43 23.5, 394.56 10.51, 403.26 -0.16 M378.44 36.79 C385.43 22.67, 396.32 12.62, 408.6 0.8 M377.96 35.21 C389.77 21.35, 401.18 7.2, 407.65 0.46 M384.3 33.93 C394.55 23.32, 405.16 12.43, 413.17 1.02 M383.08 35.3 C389.82 26.33, 396.76 20.36, 413.36 0.2 M387.22 34.13 C394.6 26.15, 402.07 19.1, 419.87 -0.87 M388.41 36.15 C397.55 24.01, 406.95 15.15, 418.08 -0.91 M395.16 35.25 C404.15 25.57, 413.2 13.08, 422.2 0.11 M393.47 34.97 C400.08 25.87, 406.86 17.65, 424 -0.06 M400.01 33.9 C409.94 21.22, 423.86 6.93, 429.29 -0.83 M398.23 35.76 C406.95 25.57, 414.71 16.34, 429.8 -0.46 M405.29 32.91 C409.72 26.03, 416.52 20.55, 435.19 1.25 M405.21 34.5 C413.51 22.41, 423.84 11.42, 434.13 -0.05 M407.39 36.85 C420.24 20.22, 430.81 7.57, 438.56 0.54 M408.86 34.45 C418.85 25.14, 427.22 14.98, 439.67 -0.25 M415.37 35.54 C422.05 24.07, 432.38 16.5, 443.96 -0.05 M415.68 35.36 C426.01 21.49, 438.66 7.59, 444.57 -0.74 M420.15 35.51 C430.66 24.31, 436.43 15.56, 449.59 -1.37 M419.62 34.75 C426.16 27.19, 433.49 19.3, 450.47 -0.18 M426.32 35.53 C437.07 20.56, 450.78 6.38, 456.55 -0.53 M426.15 35.14 C437.15 21.88, 448.34 8.85, 456.01 -0.97 M429.34 34.13 C441.52 20.99, 455.14 9.14, 460.56 0.58 M429.7 35.31 C439.1 25.67, 446.59 18.36, 460.82 -0.03 M434.66 33.78 C444.71 20.46, 459.57 7.91, 465.25 -1.18 M435.08 36.3 C446.35 22.78, 458.36 10.67, 467.02 0.52 M442.26 36.72 C451.68 22.91, 460.82 13.65, 473.24 2.03 M442.17 34.9 C448.34 26.51, 453.9 19.11, 470.57 1.28 M447.14 36.66 C454.67 26.48, 459.24 18.97, 478.64 0.77 M446.79 35.17 C455.89 23.32, 466.74 11.78, 476.05 -0.86 M450.46 35.05 C460.85 24.94, 466.92 15.1, 483.62 0.1 M451.97 34.42 C457.56 27.05, 464.86 19.88, 481.42 0.72 M456.76 36.56 C464.78 26.57, 472.98 19.04, 489.49 -0.18 M457.51 34.47 C463.12 26.97, 471.57 18.05, 487.4 0.41 M461.74 36.62 C469.18 26.69, 480.11 16.54, 493.96 1.95 M461.93 34.9 C471.53 25.49, 477.84 15.97, 492.95 -0.39 M469.47 36.87 C479.62 22.31, 492 9.09, 498.87 -1.76 M468 36.29 C475.55 27.26, 481.48 18.1, 499.28 -0.02 M472.16 36.7 C482.83 21.85, 492.95 11.3, 503.45 1.69 M472.73 35.48 C482.08 25.03, 488.79 16.03, 503.32 0.68 M479.42 36.73 C483.99 27.53, 490.92 20.98, 508.07 -1.96 M478.88 34.83 C487.54 23.86, 500.14 11.38, 509.75 -0.37 M482.01 34.3 C493.05 24.52, 496.67 16.45, 515.51 1.23 M482.94 35.45 C492.73 24.37, 501.76 12.83, 514.51 0.77 M489.06 35.01 C499.91 20.22, 512.11 7.67, 518.65 0.98 M488.66 34.45 C498.89 23.78, 508.87 11.29, 518.76 -0.74 M495.84 36.18 C506.42 21.39, 515.55 9.24, 525.81 -1.8 M495.01 34.2 C502.57 25.43, 510.71 14.84, 524.41 0.83 M501.04 34.37 C505.63 28.55, 512.74 19.33, 528.41 0.57 M499.72 35.59 C506.56 27.96, 512.73 19.67, 530.12 -1.1 M506.47 36.86 C513.88 24.11, 521.73 16.15, 534.28 1.98 M505.25 35.26 C513.73 23.43, 525.06 12.48, 534.78 -0.05 M510.31 37.18 C518.82 23.59, 530.02 14.9, 539.39 -1.93 M510.32 34.86 C516.58 27.9, 524.37 19.35, 541.53 0.69 M514.92 34.59 C524.3 23.82, 533.03 11.75, 545.1 1.72 M515.87 34.28 C525.89 24.18, 536.11 11.26, 545.25 -0.65 M520.03 33.58 C529.72 23.16, 540.68 8.9, 549.9 -1.49 M520.59 34.95 C532.54 21.68, 544.24 8.39, 550.56 -1.09 M526.52 35.38 C534.32 26.28, 540.56 18.52, 554.69 -1.71 M526.92 35.03 C534.34 25.34, 543.16 16.12, 557.32 0.37 M529.64 33.46 C542.54 24.08, 553.22 12.2, 562.49 -1.37 M530.53 34.72 C540.56 22.75, 551.37 11.98, 562.65 -0.04 M538.8 33.01 C545.14 21.85, 557.73 11.16, 567.73 0.34 M536.35 35.42 C544.79 25.09, 554.32 15.13, 566.38 0.46 M542.8 34.46 C549.37 23.07, 561.77 12.89, 571.96 -1.05 M542.03 35.11 C551.71 22.76, 562.62 11.79, 573.11 0.37 M544.92 33.73 C555.96 21.84, 569.67 10.29, 577.14 0.25 M547.32 36.23 C556.68 23.32, 568.02 12.32, 577.68 -0.79 M551.45 33.96 C559.33 28.36, 566.8 18.31, 580.7 0.48 M552.83 35.23 C560.04 26.16, 567.71 16.2, 582.49 -0.47 M556.23 37.3 C567.15 23.61, 581.73 9.9, 588.1 -1.85 M556.84 36.09 C562.91 27.29, 569.74 20.47, 588.34 0.35 M563.75 33.1 C574.54 22.39, 586.08 7.87, 593.33 1.74 M562.58 34.28 C574.74 21.61, 586.64 6.71, 593.17 0.73 M566.38 33.48 C575.53 22.83, 585.87 13.02, 598.03 -2.05 M567.82 36.03 C577.94 25.44, 585.95 15.15, 599.39 -0.3 M572.14 36.77 C583.68 27.72, 590.83 17.97, 604.74 -0.77 M572.78 35.6 C581.83 26.72, 587.82 17.86, 603.43 -0.4 M577.92 35.04 C590.48 23.17, 602.35 9.16, 608.62 -0.74 M579.7 34.47 C589.65 22.6, 602.26 9.41, 609.69 -0.77 M585.29 33.59 C594.19 24.16, 605.04 11.73, 614.74 0.47 M584.8 34.65 C593.3 24.99, 602.43 12.68, 614.09 1.18 M589.66 34.48 C598.72 24.57, 609.85 13.85, 621.79 1.48 M589.81 35.91 C597.62 24.65, 606.36 14.84, 620.01 -0.97 M596.12 35.97 C600.64 28.13, 607.28 21.13, 623.36 0.71 M595.91 35.02 C604.02 24.14, 614.71 13.74, 625.85 0.62 M600.64 36.08 C609.99 21.95, 620.24 12.72, 631.7 -0.25 M599.33 35.02 C608.11 27.5, 615.34 18.5, 630.97 -0.69 M605.82 36.03 C618.82 23.29, 629.14 10.02, 634.93 -1.03 M605.24 34.43 C617.18 21.5, 629.74 8.91, 635.26 -0.8 M610.16 35.83 C620.09 24.61, 626.7 16.46, 640.8 0.95 M611.33 34.57 C619.5 25.22, 628.62 14.2, 641.09 0.4 M615.8 33.67 C624.24 25.42, 631.36 17.53, 645.97 2.02 M615.78 34.71 C625.55 24.08, 632.41 15.21, 646.79 0.3 M621.77 33.51 C634.41 19.93, 643.94 8.06, 651.75 -0.28 M620.76 35.45 C630.3 24.44, 639.98 15.01, 652.73 -1.22 M627.75 36.51 C637.03 23.24, 645.08 13.45, 657.3 0.36 M626.43 35.83 C636.97 22.95, 647.21 10.44, 656.74 -0.53 M631.28 36.62 C638.95 25.4, 648.4 18.37, 663.47 -1.55 M632.44 34.7 C642.08 23.27, 650.82 13.91, 662.16 -0.98 M635.58 35.95 C643.75 25.89, 653.42 17.26, 665.97 0.25 M637.93 33.87 C648.78 23.66, 658.4 11.27, 667.31 0.34 M642.74 36.42 C652.17 24.51, 657.29 16.3, 675.16 -0.74 M643.05 35.46 C649.97 28.26, 656.28 20.97, 673.51 -0.15 M649.49 35.13 C658.84 22.06, 667.06 10.51, 677.28 -0.28 M648.93 35.05 C658.03 25.26, 666.34 14.5, 678.57 0.7 M652.44 35.93 C659.31 27.52, 667.67 19.23, 682.22 0.06 M653.17 35.01 C661.73 24.31, 670.91 16.01, 684.78 0.09 M659.88 32.92 C669.2 21.36, 680.7 10.02, 688.77 0.51 M657.91 35.7 C669.34 22.72, 681.4 9.47, 688.45 0.45 M664.94 33.92 C675.61 23.96, 686.57 10.1, 696.35 -1.53 M663.25 34.75 C671.52 26.51, 677.48 17.84, 693.86 -1.28 M668.78 36.73 C677.03 27.82, 682.13 16.32, 698.26 0.14 M668.62 35.04 C679.91 21.62, 693.06 9.31, 698.79 -0.4 M673.04 36.88 C685.7 22.93, 693.47 10.3, 704.8 0.64 M673.59 34.2 C686.17 21.8, 698.09 7.73, 703.85 -0.43 M680.43 35.42 C692.78 22.01, 702.72 9.49, 711.78 -0.13 M678.61 36.15 C690.4 23.05, 699.91 12.15, 709.27 0.32 M685.79 35.09 C696.9 21.94, 707.14 11.14, 717.06 2.19 M684.39 35.02 C692.85 25.74, 699.78 16.49, 715.68 0.35 M689.35 35.89 C698.66 25.97, 709.24 11.08, 719.64 0.71 M689.37 34.5 C699.96 24.95, 708.22 15.63, 721.45 0.87 M696.49 34.55 C707.67 20.06, 718.31 9.71, 724.91 0.77 M695.73 34.99 C708.21 21.76, 719.13 8.17, 726.21 1.15 M698.97 36.03 C711.24 21.7, 722.87 10.95, 732.4 -0.56 M700.89 34.92 C709.78 24.56, 718.4 14.57, 730.79 -0.34 M706.69 33.02 C715.84 25.55, 724.94 12.49, 737.02 1.02 M705.53 33.99 C717.76 22.27, 727.96 9.89, 736.81 -0.57 M712.95 33.47 C719.68 24.72, 726.48 18.21, 740.84 0.54 M711.06 34.39 C723.34 21.89, 735.56 8.04, 742.61 -0.79 M718.19 36.03 C724.4 27.93, 731.82 16.69, 746.31 -0.69 M717.63 34.06 C724.8 24.49, 734.36 16.34, 746.75 0.79 M723.23 33.6 C732.19 24.89, 740.11 15.46, 752.03 0.3 M721.64 35.98 C730.09 27.04, 736.83 19.01, 752.08 0.17 M729.04 36.82 C736.87 24.35, 747.86 15.61, 757.97 -0.22 M727.72 35.35 C739.54 21.31, 749.72 9.44, 757.16 0.93 M733.98 33.56 C743.01 22.5, 753.15 10.34, 765.26 -1.28 M732.25 34.9 C743.75 23.86, 752.66 11.35, 764.29 -0.67 M737.54 36.42 C750.56 23.12, 761.38 9.05, 769.42 -1.67 M737.36 34.13 C745.07 26.7, 750.57 20.57, 769.04 -0.31 M741.62 34.23 C752.38 22.04, 764.53 11.19, 772.09 -0.44 M742.41 34.51 C755.08 22.22, 768.26 6.9, 774.18 -0.44 M750.25 35.57 C758.61 25.39, 768.14 14.11, 778.32 -1.41 M748 34.8 C761.65 20.17, 773.17 7.51, 779.27 1.03 M754.84 36.26 C765.05 21.78, 771.54 13.43, 784.31 -1.67 M753.48 34.25 C762.63 25.31, 773.16 13.25, 784.57 -0.08 M757.96 34.81 C764.73 28.35, 772.12 21.43, 790.62 -0.05 M758.95 33.89 C769.56 22.73, 779.94 10.78, 790.6 1.06 M762.56 36.01 C774.36 24.22, 787.64 9.16, 793.98 -1.7 M764.73 35.73 C776.85 20.38, 789.56 7.47, 796.14 -0.47 M771.73 34.38 C777.08 24.32, 787.43 14.24, 800.49 1.53 M769.41 34.05 C780.26 24.49, 789.04 13.75, 799.68 -0.04 M773.95 33.65 C782.55 25.32, 792.63 15.5, 805.39 -1.52 M775.3 34.64 C788.02 20.22, 799.32 6.97, 805.47 -0.31 M778.2 35.05 C786.45 28.8, 792.45 20.06, 810.34 -1.76 M779.79 34.8 C789.54 26.69, 797.45 15.28, 811 0.09 M786.45 37.04 C796.53 25.81, 802.77 12.82, 814.45 -1.62 M786.17 34.83 C794.12 26.39, 800.42 16.59, 816.34 0.54 M790.23 35.07 C798.37 29.39, 801.6 18.64, 822.86 0.71 M790.35 35.55 C801.73 23.93, 812.59 11.66, 820.94 -0.09 M797.72 33.83 C807.32 26.25, 814.28 15.21, 827.26 -0.99 M796.24 34.27 C806.81 24.11, 815.68 11.68, 826.39 0.1 M802.97 34.72 C811.42 24.7, 816.43 15.52, 832.97 -0.69 M801.25 36.07 C813.19 23, 824.65 9.48, 831.77 0 M805.69 35.4 C815.34 25.66, 822 17.3, 836.22 -0.62 M806.27 35.03 C819.17 21.24, 830.84 7.53, 837.15 0.78 M812.47 37.25 C823.04 21.65, 836.77 9.23, 843.85 0.2 M811.18 35.51 C817.64 27.39, 825.4 21.73, 843.6 -0.92 M816.53 36.89 C827.04 24.13, 836.6 12.06, 846.62 1.51 M816.87 35.34 C823.54 26.38, 831.5 19.44, 848.69 0.34 M823.02 33.68 C833.74 21.87, 846.96 8.53, 854.93 1.25 M822.71 35.14 C833.01 22.75, 845.68 9.88, 852.46 -0.01 M828.69 33.19 C840.61 23.85, 848.08 12.87, 860.03 -0.85 M828.57 35.52 C835.95 26.16, 841.48 19.46, 858.96 0.7 M835.19 34.76 C838.72 25.36, 847.84 17.93, 865.87 0.11 M832.29 34.37 C844.7 23.26, 855.37 10.92, 864.21 -0.32 M840.82 34.94 C847.45 28.3, 853.27 19.9, 870.24 1.81 M839.73 34.05 C845.32 27.87, 851.75 20.72, 869.76 -0.12 M845.76 35.02 C850.5 25.55, 857.5 17.59, 876.61 -1.85 M844.23 34.72 C851.49 25.44, 860.61 16.51, 874.62 -0.75 M847.85 36.51 C860.22 22.69, 873.99 5.6, 879.31 -1.23 M848.62 35.51 C861.54 22.39, 872.68 7.59, 878.81 0.02 M855.8 36.7 C862.47 28.77, 868.01 18.31, 883.32 0.53 M854.72 35.84 C862.61 25.46, 870.39 17.46, 885.32 -0.09 M860.97 36.05 C871.27 24.83, 883.22 11.21, 889.52 -0.97 M859.36 34.61 C872.79 21.88, 885.21 8.14, 889.65 -0.6 M866.6 33.82 C874.06 23.39, 885.42 15.2, 894.43 0.11 M865.84 35.51 C872.59 26.85, 879.17 18.63, 895.8 -1.01 M871.59 35.45 C877.51 27.3, 884.2 20.38, 899.44 -0.65 M869.97 34.2 C878.83 24.26, 888.31 13.86, 901.75 0.43 M875.71 36.15 C886.32 21.72, 898.88 6.83, 906.61 1.55 M875.53 35.63 C886.54 23.07, 898.61 9.24, 907.46 -0.03 M879.39 36.34 C891.1 20.58, 905.12 8.12, 911.87 0.25 M882.31 35.23 C891.83 23.96, 899.78 13.4, 912.41 -0.37 M884.94 33.19 C897.56 20.31, 910.39 8.46, 916.79 1.22 M885.6 34.22 C893.4 26.5, 902.02 18.29, 917.54 0.42 M892.31 36.1 C899.17 27.14, 908.6 17.65, 921.84 1.98 M892.16 34.79 C903.49 23.17, 913.24 10.58, 922.82 -0.36 M896.33 34.21 C904.5 27.32, 911.97 19.39, 926.14 -0.73 M897.75 35.43 C909.09 20.31, 920.96 7.66, 927.19 0.07 M901.85 36.63 C915.18 22.83, 925.64 6.99, 932.68 0.56 M902.48 34.85 C910.64 26.25, 918 16.81, 932.07 -0.75 M908.19 36.22 C919.31 22.16, 932.96 5.65, 939.44 0.33 M907.55 35.54 C914.84 27.45, 921.5 17.31, 938.74 -0.51 M913.75 37.31 C918.67 25.12, 925.91 19.9, 943.92 -0.25 M912.09 35.24 C924.08 20.8, 935.34 8.9, 943.09 -0.65 M919.06 35.98 C930.57 23.61, 940.71 11.62, 947.67 -1.47 M918.44 34.95 C928.82 22.12, 940.44 8.97, 948.39 1.16 M924.04 35.53 C934.23 26.04, 943.05 15.19, 955.37 -0.93 M923.71 36.18 C936.33 20.85, 946.84 8.13, 954.69 -1.02 M927.75 34 C939.18 22.74, 950.25 11.02, 960.1 2.02 M929.74 34.19 C936.43 26.83, 943.07 18.97, 958.25 -0.1 M933.65 35.67 C939.57 26.26, 946.54 21.36, 963.08 1.76 M934.61 35.25 C940.24 26.6, 946.74 20.68, 965.58 -0.73 M941.31 34.54 C946.61 23.9, 956.96 17.03, 970.91 1.93 M938.64 35.9 C947.1 28.74, 951.53 20.8, 968.94 -0.06 M943.73 33.87 C953.27 28.18, 960.86 15.75, 975.34 -1.15 M943.91 36.17 C957.45 21.7, 968.94 8.46, 976.32 -0.49 M951.04 33.62 C958.28 23.63, 967.77 13.53, 978.52 1.14 M950.22 34.86 C960.48 21.34, 972.49 9.75, 980.96 -0.4 M955.74 34.02 C962.11 29.87, 966 22, 984.72 1.1 M954.62 34.77 C964.2 26.32, 971.33 16.01, 985.35 -0.91 M960.48 35 C969.24 22.73, 982.88 11.02, 989.61 -1.7 M961.4 33.97 C971.83 24.08, 982.56 10.52, 990.71 -0.64 M967.33 35.75 C977.04 22.79, 986.03 11.45, 996.01 -0.98 M965.61 35.02 C972.57 27.11, 978.89 20.45, 997 -0.45 M969.45 34.19 C983.21 24.52, 992.76 11.98, 1003.11 -0.21 M971.03 34.26 C976.71 27.74, 983.05 20.83, 1002.43 -0.2 M976.43 34.46 C987.76 20.86, 999.08 8.47, 1006.26 -1.14 M975.66 35.01 C986.79 21.75, 998.93 8.57, 1007.45 0.53 M981.99 34.44 C990.34 22.7, 1001.96 9.73, 1014.19 -0.26 M981.77 34.87 C989.08 25.66, 998.11 17.55, 1012.25 -0.36 M985.22 33.27 C998.69 22.48, 1011.77 7.3, 1016.77 -1.35 M987.38 34.94 C998.17 22.72, 1007.75 10.79, 1018.78 -0.2 M994.39 34.78 C1001.31 25.02, 1011.17 16.04, 1022.27 0.05 M992.21 35.08 C1003.74 22.68, 1013.05 10.55, 1022.19 -0.3 M996.13 35.08 C1006.77 23.56, 1018.85 8.11, 1029.09 0.14 M997.28 35.17 C1008.86 22.84, 1017.33 12.15, 1028.92 -0.73 M1003.22 33.97 C1009.24 26.85, 1015.15 22.75, 1035.03 -1.65 M1002.79 34.3 C1009.75 26.45, 1015.75 18.97, 1034.12 0.96 M1007.84 34.51 C1016.04 26.96, 1021.8 18.48, 1041.03 0.85 M1007.74 34.14 C1019.09 23.04, 1028.03 12.49, 1039.7 -1.03 M1012.62 35.26 C1018.67 28.82, 1025.88 20.3, 1044.41 0.03 M1013.17 34.8 C1023.48 23.4, 1034.18 10.31, 1043.8 0.51 M1019.25 33.97 C1029.81 21.89, 1041.07 10.85, 1049.98 -1.22 M1019.02 34.44 C1029.92 22.83, 1041.1 10, 1048.15 -0.21 M1024.95 35.42 C1032.85 25.49, 1043.27 12.87, 1054.56 -1.78 M1024.86 34.73 C1033.47 25.08, 1041.92 14.26, 1054.85 -0.46 M1029.57 35.58 C1037.29 27.14, 1046.7 15.21, 1059.54 1.46 M1029.25 34.8 C1038.59 26.12, 1047.03 15.04, 1059.16 0.51 M1032.85 37.2 C1041.91 23.79, 1052.08 15.29, 1060.68 7.85 M1035.26 34.6 C1043.42 23.7, 1053.16 14.26, 1059.55 5.45 M1038.2 33.24 C1045.12 27.33, 1054.06 20.5, 1061.13 10.45 M1040.44 34.05 C1046.74 27.25, 1053.16 20.69, 1059.01 12.35 M1045.88 34.38 C1052.81 27.44, 1055.37 21.52, 1059.44 17.56 M1044.33 36.33 C1051.63 28.58, 1056.68 23.24, 1059.26 17.7 M1049.42 36.09 C1053.12 32.38, 1054.44 28.59, 1060.02 25.67 M1050.57 35.09 C1053.15 31.89, 1056.72 27.5, 1059.66 23.96 M1055.21 35.67 C1056.47 34.22, 1057.46 33.22, 1059.92 30.7 M1055.82 35.52 C1057.52 33.38, 1059.06 31.7, 1059.76 30.74" stroke="#fa5252" stroke-width="0.5" fill="none"></path><path d="M-0.38 -0.27 C409.91 -0.57, 820.78 -1.15, 1059.8 -0.18 M-0.2 -0.3 C415.06 -2.72, 830.65 -2.1, 1059.92 -0.27 M1059.75 -1.11 C1058.71 9.49, 1060.69 18.89, 1058.85 34.16 M1060.03 0.52 C1059.56 13.86, 1060.58 25.31, 1059.24 34.38 M1060.69 34.11 C706.72 31.15, 354.41 30.82, -0.65 33.83 M1059.72 33.78 C739.34 37.34, 418.81 36.81, -0.01 34.01 M-1.58 35.83 C0.03 20.47, -1.91 7.42, 1.12 -1.26 M-0.25 33.61 C0.25 21.47, 0.42 7.69, -0.99 -0.78" stroke="#000000" stroke-width="1" fill="none"></path></g><g transform="translate(606.6792407993597 1072.410823525917) rotate(0 54.94994354248047 12)"><text x="54.94994354248047" y="0" font-family="Virgil, Segoe UI Emoji" font-size="20px" fill="#000000" text-anchor="middle" style="white-space: pre;" direction="ltr" dominant-baseline="text-before-edge">Service bus</text></g><g mask="url(#mask-GYuzh8B1gmGWtWYoxuw_-)" stroke-linecap="round"><g transform="translate(870.7639385927379 773.3754845074088) rotate(0 95.84843146841843 -1.3005548488328103)"><path d="M-1.33 -0.83 C64.69 -1.84, 132.39 -1.95, 193.02 -1.37 M-0.2 -0.85 C51.5 -0.04, 102.46 -1.16, 192.85 -2.03" stroke="#000000" stroke-width="1" fill="none"></path></g></g><mask id="mask-GYuzh8B1gmGWtWYoxuw_-"><rect x="0" y="0" fill="#fff" width="1163.6797399100546" height="876.1984368678801"></rect><rect x="943.9318612240525" y="747.9640083271731" fill="#000" width="46.5799560546875" height="48" opacity="1"></rect></mask><g transform="translate(943.9318612240527 747.9640083271731) rotate(0 22.68050883710373 24.110921331402842)"><text x="23.28997802734375" y="0" font-family="Virgil, Segoe UI Emoji" font-size="20px" fill="#000000" text-anchor="middle" style="white-space: pre;" direction="ltr" dominant-baseline="text-before-edge">Send</text><text x="23.28997802734375" y="24" font-family="Virgil, Segoe UI Emoji" font-size="20px" fill="#000000" text-anchor="middle" style="white-space: pre;" direction="ltr" dominant-baseline="text-before-edge">email</text></g><g stroke-linecap="round"><g transform="translate(790.7194533530591 611.4384236583209) rotate(0 -0.11125123779311252 43.85504570051055)"><path d="M-1.48 -1.08 C2.14 30.11, 2.07 56.42, -1.06 88.79 M-0.97 0.4 C-0.68 35.6, 0.63 69.85, 0.45 87.04" stroke="#000000" stroke-width="1" fill="none"></path></g></g><mask></mask><g transform="translate(10 403.24528012687665) rotate(0 36.371986389160156 16.799999999999997)"><text x="0" y="0" font-family="Virgil, Segoe UI Emoji" font-size="28px" fill="#364fc7" text-anchor="start" style="white-space: pre;" direction="ltr" dominant-baseline="text-before-edge">Cloud</text></g><g mask="url(#mask-Yo1u2WQnTeRH-Gf_mZMIj)" stroke-linecap="round"><g transform="translate(275.134908182008 658.5452801268766) rotate(0 -0.17604257704803672 203.13318975194355)"><path d="M0.19 0.6 C0.24 68.06, 0.81 337.62, 0.88 404.91 M-1.18 -0.14 C-1.37 67.51, -1.02 338.83, -0.31 406.4" stroke="#000000" stroke-width="1" fill="none"></path></g><g transform="translate(275.134908182008 658.5452801268766) rotate(0 -0.17604257704803672 203.13318975194355)"><path d="M-9.72 377.5 C-7.24 386.7, -4.58 396.64, 0.13 407.02 M-11.22 379.01 C-6.33 387.84, -3.19 398.58, 0.17 406.19" stroke="#000000" stroke-width="1" fill="none"></path></g><g transform="translate(275.134908182008 658.5452801268766) rotate(0 -0.17604257704803672 203.13318975194355)"><path d="M10.8 377.39 C6.2 386.66, 1.77 396.64, 0.13 407.02 M9.3 378.9 C6.63 387.75, 2.22 398.53, 0.17 406.19" stroke="#000000" stroke-width="1" fill="none"></path></g></g><mask id="mask-Yo1u2WQnTeRH-Gf_mZMIj"><rect x="0" y="0" fill="#fff" width="376.4725112886916" height="1163.5452801268766"></rect><rect x="218.35375856347486" y="836.0452801268766" fill="#000" width="114.89990234375" height="50" opacity="1"></rect></mask><g transform="translate(218.3537585634748 836.0452801268766) rotate(0 56.605107041485184 25.633189751943547)"><text x="57.449951171875" y="0" font-family="Virgil, Segoe UI Emoji" font-size="20px" fill="#000000" text-anchor="middle" style="white-space: pre;" direction="ltr" dominant-baseline="text-before-edge">User/Editor</text><text x="57.449951171875" y="25" font-family="Virgil, Segoe UI Emoji" font-size="20px" fill="#000000" text-anchor="middle" style="white-space: pre;" direction="ltr" dominant-baseline="text-before-edge">updates</text></g><g mask="url(#mask-SvS1Q8SkI4omZg9pE7KGy)" stroke-linecap="round"><g transform="translate(523.3719863891602 858.5452801268766) rotate(0 -0.49907736575573836 101.82922699465882)"><path d="M0.64 -0.21 C0.24 34.04, -1.34 170.85, -1.7 205.03 M-0.48 -1.37 C-0.55 32.61, 1 169.39, 0.65 203.44" stroke="#000000" stroke-width="1" fill="none"></path></g><g transform="translate(523.3719863891602 858.5452801268766) rotate(0 -0.49907736575573836 101.82922699465882)"><path d="M-10.02 174.11 C-4.39 184.38, -1.03 193.94, 2.49 203.1 M-9.42 175.08 C-7.52 184.47, -3.28 191.73, 0.81 203.4" stroke="#000000" stroke-width="1" fill="none"></path></g><g transform="translate(523.3719863891602 858.5452801268766) rotate(0 -0.49907736575573836 101.82922699465882)"><path d="M10.5 174.07 C8.81 184.47, 4.84 194.04, 2.49 203.1 M11.1 175.04 C6.94 184.5, 5.11 191.77, 0.81 203.4" stroke="#000000" stroke-width="1" fill="none"></path></g></g><mask id="mask-SvS1Q8SkI4omZg9pE7KGy"><rect x="0" y="0" fill="#fff" width="624.3719863891602" height="1162.5452801268766"></rect><rect x="466.11205291748036" y="935.5452801268766" fill="#000" width="113.51986694335938" height="50" opacity="1"></rect></mask><g transform="translate(466.11205291748036 935.5452801268766) rotate(0 56.76085610592395 24.829226994658825)"><text x="56.75993347167969" y="0" font-family="Virgil, Segoe UI Emoji" font-size="20px" fill="#000000" text-anchor="middle" style="white-space: pre;" direction="ltr" dominant-baseline="text-before-edge">Subscription</text><text x="56.75993347167969" y="25" font-family="Virgil, Segoe UI Emoji" font-size="20px" fill="#000000" text-anchor="middle" style="white-space: pre;" direction="ltr" dominant-baseline="text-before-edge">change</text></g><g mask="url(#mask-0Bb3ZCZtqYg7Ud95Q68p7)" stroke-linecap="round"><g transform="translate(688.3719863891602 1057.5452801268766) rotate(0 22.964383217692387 -99.45361326784361)"><path d="M-0.98 0.25 C7.03 -32.63, 38.92 -164.16, 46.91 -197.37 M0.71 -0.66 C8.65 -33.88, 38.34 -166.23, 45.91 -199.16" stroke="#000000" stroke-width="1" fill="none"></path></g><g transform="translate(688.3719863891602 1057.5452801268766) rotate(0 22.964383217692387 -99.45361326784361)"><path d="M50.1 -169.56 C49.97 -175.68, 46.42 -180.25, 44.26 -200.57 M49.61 -169.8 C48.82 -176.97, 46.49 -186.88, 45.97 -199.84" stroke="#000000" stroke-width="1" fill="none"></path></g><g transform="translate(688.3719863891602 1057.5452801268766) rotate(0 22.964383217692387 -99.45361326784361)"><path d="M30.09 -174.1 C34.09 -179.12, 34.68 -182.75, 44.26 -200.57 M29.6 -174.34 C34.47 -180.15, 37.76 -188.78, 45.97 -199.84" stroke="#000000" stroke-width="1" fill="none"></path></g></g><mask id="mask-0Bb3ZCZtqYg7Ud95Q68p7"><rect x="0" y="0" fill="#fff" width="835.3719863891602" height="1355.5452801268766"></rect><rect x="655.1120529174804" y="933.5452801268766" fill="#000" width="113.51986694335938" height="50" opacity="1"></rect></mask><g transform="translate(655.1120529174804 933.5452801268766) rotate(0 56.224316689372074 24.546386732156392)"><text x="56.75993347167969" y="0" font-family="Virgil, Segoe UI Emoji" font-size="20px" fill="#000000" text-anchor="middle" style="white-space: pre;" direction="ltr" dominant-baseline="text-before-edge">Subscription</text><text x="56.75993347167969" y="25" font-family="Virgil, Segoe UI Emoji" font-size="20px" fill="#000000" text-anchor="middle" style="white-space: pre;" direction="ltr" dominant-baseline="text-before-edge">change</text></g><g stroke-linecap="round"><g transform="translate(706.3719863891602 559.5452801268766) rotate(0 -88.39498812525534 70.53701926841867)"><path d="M-0.34 0.2 C-30.19 23.68, -148.21 118.17, -178.03 141.81 M1.68 -0.74 C-28.33 22.33, -148.16 116.62, -178.47 140.11" stroke="#000000" stroke-width="1" fill="none"></path></g></g><mask></mask><g mask="url(#mask-sQsz90zR34VbeW0XaVj3A)" stroke-linecap="round"><g transform="translate(310.37198638916016 1061.5452801268766) rotate(0 66.85841012299062 -115.38495312035084)"><path d="M-0.98 1.11 C21.54 -37.37, 112.08 -192.87, 134.7 -231.88 M0.7 0.64 C23.09 -37.53, 111.4 -191.48, 133.6 -230.27" stroke="#000000" stroke-width="1" fill="none"></path></g><g transform="translate(310.37198638916016 1061.5452801268766) rotate(0 66.85841012299062 -115.38495312035084)"><path d="M130.32 -201.21 C130.27 -208.78, 129.82 -215.83, 135.22 -232.03 M128.65 -200.33 C130.31 -209.81, 131.1 -219.19, 134.25 -230.78" stroke="#000000" stroke-width="1" fill="none"></path></g><g transform="translate(310.37198638916016 1061.5452801268766) rotate(0 66.85841012299062 -115.38495312035084)"><path d="M112.52 -211.42 C117.01 -216.18, 121.21 -220.57, 135.22 -232.03 M110.84 -210.54 C118.27 -216.78, 124.82 -222.86, 134.25 -230.78" stroke="#000000" stroke-width="1" fill="none"></path></g></g><mask id="mask-sQsz90zR34VbeW0XaVj3A"><rect x="0" y="0" fill="#fff" width="545.3719863891602" height="1393.5452801268766"></rect><rect x="320.42203521728516" y="920.5452801268766" fill="#000" width="114.89990234375" height="50" opacity="1"></rect></mask><g transform="translate(320.42203521728516 920.5452801268766) rotate(0 56.80836129486562 25.615046879649157)"><text x="57.449951171875" y="0" font-family="Virgil, Segoe UI Emoji" font-size="20px" fill="#000000" text-anchor="middle" style="white-space: pre;" direction="ltr" dominant-baseline="text-before-edge">User/Editor</text><text x="57.449951171875" y="25" font-family="Virgil, Segoe UI Emoji" font-size="20px" fill="#000000" text-anchor="middle" style="white-space: pre;" direction="ltr" dominant-baseline="text-before-edge">updates</text></g><g mask="url(#mask-5YfrUXHNKOy4JKGH8Gpyl)" stroke-linecap="round"><g transform="translate(872.37198638916 1059.5452801268766) rotate(0 -9.990587132861833 -100.49688780397642)"><path d="M-0.54 1.17 C-4.08 -32.24, -17.55 -166.88, -20.96 -200.37 M1.38 0.74 C-2.25 -33.03, -17.6 -168.46, -21.36 -202.17" stroke="#000000" stroke-width="1" fill="none"></path></g><g transform="translate(872.37198638916 1059.5452801268766) rotate(0 -9.990587132861833 -100.49688780397642)"><path d="M-6.05 -173.57 C-11.3 -182.31, -14.65 -190.73, -22.35 -201.69 M-7.59 -176.18 C-11.21 -181.92, -13.28 -187.91, -22.19 -202.5" stroke="#000000" stroke-width="1" fill="none"></path></g><g transform="translate(872.37198638916 1059.5452801268766) rotate(0 -9.990587132861833 -100.49688780397642)"><path d="M-26.45 -171.27 C-25.12 -180.67, -21.9 -189.83, -22.35 -201.69 M-27.99 -173.88 C-27.01 -180.3, -24.5 -186.8, -22.19 -202.5" stroke="#000000" stroke-width="1" fill="none"></path></g></g><mask id="mask-5YfrUXHNKOy4JKGH8Gpyl"><rect x="0" y="0" fill="#fff" width="994.37198638916" height="1360.5452801268766"></rect><rect x="803.9220352172852" y="934.0452801268766" fill="#000" width="114.89990234375" height="50" opacity="1"></rect></mask><g transform="translate(803.9220352172852 934.0452801268766) rotate(0 58.45936403901317 25.00311219602358)"><text x="57.449951171875" y="0" font-family="Virgil, Segoe UI Emoji" font-size="20px" fill="#000000" text-anchor="middle" style="white-space: pre;" direction="ltr" dominant-baseline="text-before-edge">User/Editor</text><text x="57.449951171875" y="25" font-family="Virgil, Segoe UI Emoji" font-size="20px" fill="#000000" text-anchor="middle" style="white-space: pre;" direction="ltr" dominant-baseline="text-before-edge">updates</text></g></svg>