<?xml version="1.0" encoding="us-ascii" standalone="no"?><svg xmlns="http://www.w3.org/2000/svg" xmlns:xlink="http://www.w3.org/1999/xlink" contentStyleType="text/css" height="1211px" preserveAspectRatio="none" style="width:538px;height:1211px;background:#FFFFFF;" version="1.1" viewBox="0 0 538 1211" width="538px" zoomAndPan="magnify"><defs/><g><!--cluster NewsletterPlatform--><g id="cluster_NewsletterPlatform"><rect fill="none" height="1198" rx="2.5" ry="2.5" style="stroke:#181818;stroke-width:1.0;" width="301" x="94" y="7"/><text fill="#000000" font-family="sans-serif" font-size="14" font-weight="bold" lengthAdjust="spacing" textLength="160" x="164.5" y="21.9951">NewsletterPlatform</text></g><g id="elem_UC1"><ellipse cx="244.464" cy="236.1928" fill="#F1F1F1" rx="68.964" ry="16.1928" style="stroke:#181818;stroke-width:0.5;"/><text fill="#000000" font-family="sans-serif" font-size="14" lengthAdjust="spacing" textLength="90" x="196.464" y="239.9404">UC1: Sign up</text></g><g id="elem_UC2"><ellipse cx="244.3142" cy="302.7628" fill="#F1F1F1" rx="66.8142" ry="15.7628" style="stroke:#181818;stroke-width:0.5;"/><text fill="#000000" font-family="sans-serif" font-size="14" lengthAdjust="spacing" textLength="84" x="199.3142" y="306.5104">UC2: Sign in</text></g><g id="elem_UC3"><ellipse cx="244.6626" cy="376.0325" fill="#F1F1F1" rx="98.1626" ry="22.0325" style="stroke:#181818;stroke-width:0.5;"/><text fill="#000000" font-family="sans-serif" font-size="14" lengthAdjust="spacing" textLength="160" x="164.6626" y="378.8792">UC3: View newsletters</text></g><g id="elem_UC4"><ellipse cx="244.6614" cy="458.9323" fill="#F1F1F1" rx="115.1614" ry="25.4323" style="stroke:#181818;stroke-width:0.5;"/><text fill="#000000" font-family="sans-serif" font-size="14" lengthAdjust="spacing" textLength="197" x="146.1614" y="461.779">UC4: View newsletter detail</text></g><g id="elem_UC5"><ellipse cx="244.2877" cy="543.8575" fill="#F1F1F1" rx="107.2877" ry="23.8575" style="stroke:#181818;stroke-width:0.5;"/><text fill="#000000" font-family="sans-serif" font-size="14" lengthAdjust="spacing" textLength="180" x="154.2877" y="546.7042">UC5: Create a newsletter</text></g><g id="elem_UC6"><ellipse cx="244.6701" cy="627.134" fill="#F1F1F1" rx="108.6701" ry="24.134" style="stroke:#181818;stroke-width:0.5;"/><text fill="#000000" font-family="sans-serif" font-size="14" lengthAdjust="spacing" textLength="183" x="153.1701" y="629.9807">UC6: Update a newsletter</text></g><g id="elem_UC7"><ellipse cx="244.2877" cy="709.8575" fill="#F1F1F1" rx="107.2877" ry="23.8575" style="stroke:#181818;stroke-width:0.5;"/><text fill="#000000" font-family="sans-serif" font-size="14" lengthAdjust="spacing" textLength="180" x="154.2877" y="712.7042">UC7: Delete a newsletter</text></g><g id="elem_UC8"><ellipse cx="244.5366" cy="795.7741" fill="#F1F1F1" rx="116.5366" ry="26.2741" style="stroke:#181818;stroke-width:0.5;"/><text fill="#000000" font-family="sans-serif" font-size="14" lengthAdjust="spacing" textLength="147" x="168.0366" y="791.3732">UC8: Publish an issue</text><text fill="#000000" font-family="sans-serif" font-size="14" lengthAdjust="spacing" textLength="110" x="186.5366" y="807.6701">to a newsletter</text></g><g id="elem_UC9"><ellipse cx="244.4942" cy="883.8988" fill="#F1F1F1" rx="117.4942" ry="25.8988" style="stroke:#181818;stroke-width:0.5;"/><text fill="#000000" font-family="sans-serif" font-size="14" lengthAdjust="spacing" textLength="202" x="143.4942" y="886.7455">UC9: Save a draft of an issue</text></g><g id="elem_UC10"><ellipse cx="244.3343" cy="974.7669" fill="#F1F1F1" rx="134.3343" ry="29.2669" style="stroke:#181818;stroke-width:0.5;"/><text fill="#000000" font-family="sans-serif" font-size="14" lengthAdjust="spacing" textLength="169" x="159.8343" y="969.4651">UC10: View the number</text><text fill="#000000" font-family="sans-serif" font-size="14" lengthAdjust="spacing" textLength="194" x="147.3343" y="985.762">of newsletter's subscribers</text></g><g id="elem_UC11"><ellipse cx="244.6751" cy="1068.035" fill="#F1F1F1" rx="130.6751" ry="28.535" style="stroke:#181818;stroke-width:0.5;"/><text fill="#000000" font-family="sans-serif" font-size="14" lengthAdjust="spacing" textLength="230" x="129.6751" y="1070.8817">UC11: Request a password reset</text></g><g id="elem_UC12"><ellipse cx="244.5422" cy="159.2433" fill="#F1F1F1" rx="108.5422" ry="26.2433" style="stroke:#181818;stroke-width:0.5;"/><text fill="#000000" font-family="sans-serif" font-size="14" lengthAdjust="spacing" textLength="136" x="173.5422" y="154.8425">UC12: Subscribe to</text><text fill="#000000" font-family="sans-serif" font-size="14" lengthAdjust="spacing" textLength="90" x="196.5422" y="171.1393">a newsletter</text></g><g id="elem_UC13"><ellipse cx="244.2541" cy="69.7508" fill="#F1F1F1" rx="126.7541" ry="27.7508" style="stroke:#181818;stroke-width:0.5;"/><text fill="#000000" font-family="sans-serif" font-size="14" lengthAdjust="spacing" textLength="172" x="155.2541" y="65.3499">UC13: Unsubscribe from</text><text fill="#000000" font-family="sans-serif" font-size="14" lengthAdjust="spacing" textLength="90" x="196.2541" y="81.6468">a newsletter</text></g><g id="elem_UC14"><ellipse cx="244.6751" cy="1160.035" fill="#F1F1F1" rx="130.6751" ry="28.535" style="stroke:#181818;stroke-width:0.5;"/><text fill="#000000" font-family="sans-serif" font-size="14" lengthAdjust="spacing" textLength="230" x="129.6751" y="1162.8817">UC14: Send email to subscribers</text></g><!--entity Editor--><g id="elem_Editor"><ellipse cx="28" cy="597.5" fill="#F1F1F1" rx="8" ry="8" style="stroke:#181818;stroke-width:0.5;"/><path d="M28,605.5 L28,632.5 M15,613.5 L41,613.5 M28,632.5 L15,647.5 M28,632.5 L41,647.5 " fill="none" style="stroke:#181818;stroke-width:0.5;"/><text fill="#000000" font-family="sans-serif" font-size="14" lengthAdjust="spacing" textLength="44" x="6" y="661.9951">Editor</text></g><!--entity Subscriber--><g id="elem_Subscriber"><ellipse cx="485" cy="85.5" fill="#F1F1F1" rx="8" ry="8" style="stroke:#181818;stroke-width:0.5;"/><path d="M485,93.5 L485,120.5 M472,101.5 L498,101.5 M485,120.5 L472,135.5 M485,120.5 L498,135.5 " fill="none" style="stroke:#181818;stroke-width:0.5;"/><text fill="#000000" font-family="sans-serif" font-size="14" lengthAdjust="spacing" textLength="77" x="446.5" y="149.9951">Subscriber</text></g><!--entity EmailService--><g id="elem_EmailService"><ellipse cx="485" cy="1138.2969" fill="#F1F1F1" rx="8" ry="8" style="stroke:#181818;stroke-width:0.5;"/><path d="M485,1146.2969 L485,1173.2969 M472,1154.2969 L498,1154.2969 M485,1173.2969 L472,1188.2969 M485,1173.2969 L498,1188.2969 " fill="none" style="stroke:#181818;stroke-width:0.5;"/><text fill="#000000" font-family="sans-serif" font-size="14" lengthAdjust="spacing" textLength="92" x="439" y="1202.792">EmailService</text><text fill="#000000" font-family="sans-serif" font-size="14" font-style="italic" lengthAdjust="spacing" textLength="68" x="451" y="1126.4951">&#171;system&#187;</text></g><!--link Editor to UC1--><g id="link_Editor_UC1"><path d="M29.7861,588.715 C32.2978,505.999 42.756,314.4 86,269 C107.676,246.244 140.714,237.114 170.943,234.03 " fill="none" id="Editor-to-UC1" style="stroke:#181818;stroke-width:1.0;"/><polygon fill="#181818" points="176.159,233.554,166.8328,230.3881,171.1797,234.0082,167.5596,238.3551,176.159,233.554" style="stroke:#181818;stroke-width:1.0;"/></g><!--link Editor to UC2--><g id="link_Editor_UC2"><path d="M31.3366,588.953 C36.4646,518.418 51.1478,371.312 86,336 C108.448,313.256 142.278,304.249 172.839,301.243 " fill="none" id="Editor-to-UC2" style="stroke:#181818;stroke-width:1.0;"/><polygon fill="#181818" points="178.107,300.78,168.7909,297.5847,173.1263,301.2185,169.4925,305.5539,178.107,300.78" style="stroke:#181818;stroke-width:1.0;"/></g><!--link Editor to UC3--><g id="link_Editor_UC3"><path d="M28.353,588.96 C29.6989,541.767 39.3673,461.932 86,416 C102.2568,399.987 123.963,390.1 146.053,384.066 " fill="none" id="Editor-to-UC3" style="stroke:#181818;stroke-width:1.0;"/><polygon fill="#181818" points="151.069,382.762,141.3519,381.1564,146.23,384.0207,143.3658,388.8988,151.069,382.762" style="stroke:#181818;stroke-width:1.0;"/></g><!--link Editor to UC4--><g id="link_Editor_UC4"><path d="M37.1603,588.934 C45.0715,561.02 59.8362,524.25 86,502 C101.4266,488.881 120.51,479.735 140.007,473.367 " fill="none" id="Editor-to-UC4" style="stroke:#181818;stroke-width:1.0;"/><polygon fill="#181818" points="144.971,471.807,135.1859,470.6884,140.2009,473.3056,137.5837,478.3206,144.971,471.807" style="stroke:#181818;stroke-width:1.0;"/></g><!--link Editor to UC5--><g id="link_Editor_UC5"><path d="M50.2141,608.348 C60.4414,600.176 73.2398,591.083 86,585 C107.787,574.614 132.572,566.594 155.927,560.517 " fill="none" id="Editor-to-UC5" style="stroke:#181818;stroke-width:1.0;"/><polygon fill="#181818" points="160.887,559.25,151.1771,557.6014,156.0425,560.4872,153.1566,565.3526,160.887,559.25" style="stroke:#181818;stroke-width:1.0;"/></g><!--link Editor to UC6--><g id="link_Editor_UC6"><path d="M50.3513,627 C69.6845,627 99.7649,627 130.478,627 " fill="none" id="Editor-to-UC6" style="stroke:#181818;stroke-width:1.0;"/><polygon fill="#181818" points="135.813,627,126.813,623,130.813,627,126.813,631,135.813,627" style="stroke:#181818;stroke-width:1.0;"/></g><!--link Editor to UC7--><g id="link_Editor_UC7"><path d="M50.0288,644.947 C60.3175,652.965 73.2191,661.95 86,668 C108.328,678.568 133.741,686.813 157.54,693.089 " fill="none" id="Editor-to-UC7" style="stroke:#181818;stroke-width:1.0;"/><polygon fill="#181818" points="162.592,694.399,154.8832,688.2691,157.7519,693.1447,152.8763,696.0133,162.592,694.399" style="stroke:#181818;stroke-width:1.0;"/></g><!--link Editor to UC8--><g id="link_Editor_UC8"><path d="M37.4829,665.256 C45.5138,692.832 60.286,728.938 86,751 C101.5193,764.315 120.746,773.701 140.374,780.314 " fill="none" id="Editor-to-UC8" style="stroke:#181818;stroke-width:1.0;"/><polygon fill="#181818" points="145.371,781.936,138.0446,775.3539,140.615,780.3931,135.5759,782.9635,145.371,781.936" style="stroke:#181818;stroke-width:1.0;"/></g><!--link Editor to UC9--><g id="link_Editor_UC9"><path d="M28.4155,665.215 C29.8268,712.663 39.5633,793.052 86,840 C99.712,853.863 117.403,863.454 135.95,870.068 " fill="none" id="Editor-to-UC9" style="stroke:#181818;stroke-width:1.0;"/><polygon fill="#181818" points="140.682,871.687,133.4594,864.9912,135.9507,870.0699,130.872,872.5613,140.682,871.687" style="stroke:#181818;stroke-width:1.0;"/></g><!--link Editor to UC10--><g id="link_Editor_UC10"><path d="M31.4078,665.087 C36.7073,736.963 51.7425,888.825 86,927 C97.5058,939.822 112.323,949.266 128.255,956.214 " fill="none" id="Editor-to-UC10" style="stroke:#181818;stroke-width:1.0;"/><polygon fill="#181818" points="133.232,958.291,126.4661,951.134,128.6175,956.3658,123.3857,958.5172,133.232,958.291" style="stroke:#181818;stroke-width:1.0;"/></g><!--link Editor to UC11--><g id="link_Editor_UC11"><path d="M29.4146,665.258 C31.1557,753.772 40.1215,969.158 86,1022 C97.2549,1034.963 111.939,1044.372 127.815,1051.182 " fill="none" id="Editor-to-UC11" style="stroke:#181818;stroke-width:1.0;"/><polygon fill="#181818" points="132.777,1053.213,125.9634,1046.1014,128.1497,1051.3187,122.9325,1053.505,132.777,1053.213" style="stroke:#181818;stroke-width:1.0;"/></g><!--reverse link UC12 to Subscriber--><g id="link_UC12_Subscriber"><path d="M336.059,142.29 C374.334,135.23 416.801,127.4 446.382,121.94 " fill="none" id="UC12-backto-Subscriber" style="stroke:#181818;stroke-width:1.0;"/><polygon fill="#181818" points="330.93,143.24,340.5066,145.5398,335.8469,142.3324,339.0544,137.6727,330.93,143.24" style="stroke:#181818;stroke-width:1.0;"/></g><!--reverse link UC13 to Subscriber--><g id="link_UC13_Subscriber"><path d="M346.664,89.09 C381.945,95.74 419.389,102.81 446.252,107.88 " fill="none" id="UC13-backto-Subscriber" style="stroke:#181818;stroke-width:1.0;"/><polygon fill="#181818" points="341.476,88.11,349.5784,93.7092,346.3893,89.037,351.0616,85.8479,341.476,88.11" style="stroke:#181818;stroke-width:1.0;"/></g><!--link UC14 to EmailService--><g id="link_UC14_EmailService"><path d="M375.219,1160 C395.913,1160 416.182,1160 433.51,1160 " fill="none" id="UC14-to-EmailService" style="stroke:#181818;stroke-width:1.0;"/><polygon fill="#181818" points="438.79,1160,429.79,1156,433.79,1160,429.79,1164,438.79,1160" style="stroke:#181818;stroke-width:1.0;"/></g><!--SRC=[TLFBRi9033ntlyAtjWSayk0L8IwKQuKQqHEN9N5WfMIJhZUWgkg_TmC9nJGzHMFFs6kFasDcmPPWrFvW8LK64wjABOHCR6bWbIhtQK5SxoWnQeTTO5L8bSTeZYf1cC_faomMYuKGJHMfzpd2AvueHslHh7Dfiz8Ky2KUQi944iBJPkb54AkzXhfw1adW0YpjjscbsxJFqa44xmfFeAzjgEK5Z1V-uK6Arhs-POUCFOfWQL1Q17cZQAaZHXr7iAdIVwXZHfr4y88ktqkTCEeqWdMzonKTGBhPYMhSQkTIZt3AX3EtBdbiEgH6EcVBx5gWvS_uzeVjOkm1GTU5ytQhdUYtpIC1NNtlbkiDUHLduXj-r4ZMTQuaqQaqAHWaj9t24rpI6DlLTGUurJspUTnipxczqTVNG6RAebyNt3LpziUeKy3cO9jpxnaf5Dz2NEuT1eF5-H8Pz3aCE0mv774uvd32uPJ3sTqpXdVO4xz_8WpgwXBrUwE1Q4OxAs__rXy0]--></g></svg>